<svg width="136" height="36" viewBox="0 0 136 36" fill="none" xmlns="http://www.w3.org/2000/svg">
<path d="M27.8038 32.1437C27.8038 32.1437 27.7438 32.1357 27.6238 32.1197C27.5038 32.1037 27.3518 32.0877 27.1678 32.0717C26.9838 32.0557 26.7918 32.0397 26.5918 32.0237C26.3998 32.0077 26.2278 31.9997 26.0758 31.9997C25.8758 31.9997 25.6678 32.0117 25.4518 32.0357C25.2438 32.0597 25.0638 32.0837 24.9118 32.1077C24.7678 32.1317 24.6958 32.1437 24.6958 32.1437L24.7678 31.5917C25.1438 31.5197 25.3918 31.4157 25.5118 31.2797C25.6398 31.1357 25.7038 30.8957 25.7038 30.5597L25.7158 25.5197C25.7158 25.2637 25.6878 25.0917 25.6318 25.0037C25.5758 24.9157 25.4558 24.8717 25.2718 24.8717C25.1998 24.8717 25.1118 24.8757 25.0078 24.8837C24.9118 24.8917 24.8638 24.8957 24.8638 24.8957L24.8398 24.8477L24.9238 24.3197C24.9238 24.3197 24.9678 24.3237 25.0558 24.3317C25.1438 24.3317 25.2518 24.3357 25.3798 24.3437C25.5158 24.3437 25.6558 24.3477 25.7998 24.3557C25.9438 24.3557 26.0718 24.3557 26.1838 24.3557C26.3198 24.3557 26.4878 24.3557 26.6878 24.3557C26.8958 24.3477 27.0998 24.3397 27.2998 24.3317C27.4998 24.3237 27.6678 24.3197 27.8038 24.3197C27.9398 24.3117 28.0078 24.3077 28.0078 24.3077C28.7918 24.3077 29.4798 24.4597 30.0718 24.7637C30.6638 25.0597 31.1238 25.4797 31.4518 26.0237C31.7878 26.5597 31.9558 27.1837 31.9558 27.8957C31.9558 28.4957 31.8478 29.0517 31.6318 29.5637C31.4238 30.0757 31.1278 30.5277 30.7438 30.9197C30.3678 31.3037 29.9278 31.6037 29.4238 31.8197C28.9278 32.0357 28.3878 32.1437 27.8038 32.1437ZM27.1798 24.8957C27.0118 24.8957 26.8998 24.9117 26.8438 24.9437C26.7878 24.9757 26.7558 25.0477 26.7478 25.1597C26.6918 26.5437 26.6478 27.6997 26.6158 28.6277C26.5838 29.5557 26.5678 30.1557 26.5678 30.4277C26.5678 30.7157 26.6078 30.9397 26.6878 31.0997C26.7758 31.2597 26.9278 31.3717 27.1438 31.4357C27.3678 31.4997 27.6798 31.5317 28.0798 31.5317C28.9438 31.5317 29.6238 31.2357 30.1198 30.6437C30.6158 30.0437 30.8638 29.2237 30.8638 28.1837C30.8638 27.4797 30.7198 26.8837 30.4318 26.3957C30.1518 25.9077 29.7358 25.5357 29.1838 25.2797C28.6398 25.0237 27.9718 24.8957 27.1798 24.8957ZM35.3893 32.1437C34.8853 32.1437 34.4453 32.0317 34.0693 31.8077C33.6933 31.5837 33.3973 31.2757 33.1813 30.8837C32.9733 30.4837 32.8693 30.0197 32.8693 29.4917C32.8693 29.0837 32.9373 28.6957 33.0733 28.3277C33.2173 27.9597 33.4133 27.6357 33.6613 27.3557C33.9093 27.0677 34.1893 26.8437 34.5013 26.6837C34.8213 26.5157 35.1613 26.4317 35.5213 26.4317C36.7133 26.4317 37.3093 27.0117 37.3093 28.1717C37.3093 28.2757 37.3013 28.3837 37.2853 28.4957C37.2693 28.6077 37.2533 28.6957 37.2373 28.7597L37.0813 28.9037H33.7693C33.7613 29.6157 33.8893 30.1797 34.1533 30.5957C34.4253 31.0037 34.8053 31.2437 35.2933 31.3157C35.7813 31.3797 36.3573 31.2597 37.0213 30.9557L37.0933 30.9797L37.2253 31.3277C37.0653 31.4397 36.8733 31.5597 36.6493 31.6877C36.4333 31.8157 36.2133 31.9237 35.9893 32.0117C35.7653 32.0997 35.5653 32.1437 35.3893 32.1437ZM33.8173 28.4597L35.9893 28.3517C36.1093 28.3357 36.1893 28.3077 36.2293 28.2677C36.2693 28.2277 36.2893 28.1477 36.2893 28.0277C36.2893 27.7077 36.2013 27.4637 36.0253 27.2957C35.8573 27.1277 35.6133 27.0437 35.2933 27.0437C34.9253 27.0437 34.6053 27.1717 34.3333 27.4277C34.0613 27.6757 33.8893 28.0197 33.8173 28.4597ZM39.8682 32.1437C39.5802 32.1437 39.3282 32.1197 39.1122 32.0717C38.8962 32.0317 38.7282 31.9917 38.6082 31.9517C38.4962 31.9117 38.4402 31.8917 38.4402 31.8917L38.4042 31.8077C38.4202 31.7197 38.4362 31.5757 38.4522 31.3757C38.4762 31.1677 38.4962 30.9517 38.5122 30.7277C38.5362 30.5037 38.5482 30.3277 38.5482 30.1997L38.9682 30.1397C38.9682 30.6677 39.0562 31.0397 39.2322 31.2557C39.4082 31.4717 39.7082 31.5797 40.1322 31.5797C40.4362 31.5797 40.6922 31.5117 40.9002 31.3757C41.1082 31.2397 41.2122 31.0717 41.2122 30.8717C41.2122 30.7357 41.1722 30.6117 41.0922 30.4997C41.0122 30.3877 40.8722 30.2637 40.6722 30.1277C40.4722 29.9917 40.1882 29.8277 39.8202 29.6357C39.3642 29.4037 39.0322 29.1677 38.8242 28.9277C38.6162 28.6877 38.5122 28.4237 38.5122 28.1357C38.5122 27.8077 38.6082 27.5157 38.8002 27.2597C38.9922 27.0037 39.2562 26.8037 39.5922 26.6597C39.9282 26.5077 40.3042 26.4317 40.7202 26.4317C41.0482 26.4317 41.3282 26.4637 41.5602 26.5277C41.8002 26.5917 41.9202 26.6237 41.9202 26.6237L41.9442 26.6837C41.9442 26.6837 41.9282 26.7517 41.8962 26.8877C41.8722 27.0237 41.8402 27.2037 41.8002 27.4277C41.7682 27.6437 41.7402 27.8837 41.7162 28.1477L41.2722 28.1837C41.2722 28.1837 41.2762 28.1397 41.2842 28.0517C41.2922 27.9637 41.2962 27.8917 41.2962 27.8357C41.2962 27.5477 41.2162 27.3397 41.0562 27.2117C40.9042 27.0757 40.6562 27.0077 40.3122 27.0077C40.0402 27.0077 39.8082 27.0717 39.6162 27.1997C39.4322 27.3277 39.3402 27.4837 39.3402 27.6677C39.3402 27.8597 39.4202 28.0397 39.5802 28.2077C39.7482 28.3757 40.0162 28.5557 40.3842 28.7477C40.8162 28.9717 41.1522 29.1757 41.3922 29.3597C41.6402 29.5357 41.8122 29.7077 41.9082 29.8757C42.0122 30.0437 42.0642 30.2277 42.0642 30.4277C42.0642 30.7317 41.9602 31.0157 41.7522 31.2797C41.5522 31.5437 41.2842 31.7557 40.9482 31.9157C40.6202 32.0677 40.2602 32.1437 39.8682 32.1437ZM43.1723 32.1437L43.2203 31.6517C43.4603 31.5877 43.6323 31.4957 43.7363 31.3757C43.8403 31.2477 43.8923 31.0797 43.8923 30.8717V27.8237C43.8923 27.5997 43.8563 27.4357 43.7843 27.3317C43.7123 27.2277 43.6003 27.1757 43.4483 27.1757C43.3843 27.1757 43.3163 27.1837 43.2443 27.1997C43.1803 27.2157 43.1483 27.2237 43.1483 27.2237L43.1963 26.7797C43.3963 26.7477 43.5963 26.7117 43.7963 26.6717C44.0043 26.6317 44.1923 26.5957 44.3603 26.5637C44.5283 26.5237 44.6643 26.4917 44.7683 26.4677C44.8723 26.4437 44.9243 26.4317 44.9243 26.4317L44.9843 26.5757C44.9523 26.6557 44.9163 26.8357 44.8763 27.1157C44.8443 27.3877 44.8163 27.7237 44.7923 28.1237C44.7683 28.5157 44.7483 28.9477 44.7323 29.4197C44.7163 29.8837 44.7083 30.3517 44.7083 30.8237C44.7083 31.0557 44.7403 31.2277 44.8043 31.3397C44.8683 31.4437 44.9763 31.4957 45.1283 31.4957C45.2003 31.4957 45.2883 31.4917 45.3923 31.4837C45.4963 31.4757 45.5483 31.4717 45.5483 31.4717L45.5723 31.5197L45.4763 32.0357C45.4763 32.0357 45.4403 32.0317 45.3683 32.0237C45.3043 32.0237 45.2163 32.0197 45.1043 32.0117C45.0003 32.0117 44.8843 32.0077 44.7563 31.9997C44.6363 31.9997 44.5203 31.9997 44.4083 31.9997C44.2403 31.9997 44.0603 32.0117 43.8683 32.0357C43.6763 32.0597 43.5123 32.0837 43.3763 32.1077C43.2403 32.1317 43.1723 32.1437 43.1723 32.1437ZM44.2283 25.0157C44.0283 25.0157 43.8803 24.9517 43.7843 24.8237C43.6883 24.6957 43.6403 24.5557 43.6403 24.4037C43.6403 24.2117 43.7083 24.0477 43.8443 23.9117C43.9803 23.7677 44.1483 23.6957 44.3483 23.6957C44.5403 23.6957 44.6843 23.7597 44.7803 23.8877C44.8843 24.0077 44.9363 24.1477 44.9363 24.3077C44.9363 24.4997 44.8683 24.6677 44.7323 24.8117C44.6043 24.9477 44.4363 25.0157 44.2283 25.0157ZM48.5871 34.9037C48.2111 34.9037 47.8871 34.8397 47.615 34.7117C47.3431 34.5837 47.1311 34.3997 46.9791 34.1597C46.8351 33.9197 46.7631 33.6357 46.7631 33.3077C46.8751 33.1717 47.0351 33.0037 47.2431 32.8037C47.4591 32.6117 47.6951 32.4197 47.9511 32.2277V32.1557C47.5351 32.0837 47.2151 31.9477 46.9911 31.7477C46.7751 31.5477 46.6591 31.2917 46.6431 30.9797C46.7871 30.8437 46.9431 30.7117 47.1111 30.5837C47.2791 30.4477 47.4591 30.3237 47.6511 30.2117V30.0437L48.2751 30.2477C48.0271 30.3757 47.8471 30.4917 47.7351 30.5957C47.6311 30.6917 47.5791 30.7917 47.5791 30.8957C47.5791 31.0557 47.6751 31.1757 47.8671 31.2557C48.0591 31.3277 48.3031 31.3837 48.5991 31.4237C48.9031 31.4557 49.2231 31.4917 49.559 31.5317C49.9031 31.5717 50.2231 31.6357 50.5191 31.7237C50.8231 31.8037 51.0711 31.9237 51.2631 32.0837C51.4551 32.2517 51.5511 32.4837 51.5511 32.7797C51.5511 33.0437 51.4671 33.3037 51.2991 33.5597C51.1391 33.8157 50.9151 34.0437 50.6271 34.2437C50.3471 34.4437 50.0311 34.6037 49.6791 34.7237C49.3271 34.8437 48.9631 34.9037 48.5871 34.9037ZM48.9951 34.3157C49.3071 34.3157 49.5991 34.2597 49.8711 34.1477C50.1431 34.0437 50.3631 33.8997 50.5311 33.7157C50.6991 33.5317 50.7831 33.3357 50.7831 33.1277C50.7831 32.9677 50.7231 32.8397 50.6031 32.7437C50.4831 32.6477 50.2551 32.5597 49.9191 32.4797C49.5911 32.4077 49.1071 32.3317 48.4671 32.2517C48.2271 32.4197 48.0431 32.6037 47.9151 32.8037C47.7871 33.0117 47.7231 33.2157 47.7231 33.4157C47.7231 33.6877 47.8391 33.9037 48.0711 34.0637C48.3031 34.2317 48.6111 34.3157 48.9951 34.3157ZM49.0431 29.9117C49.4111 29.9117 49.6991 29.7957 49.9071 29.5637C50.1231 29.3317 50.2311 29.0117 50.2311 28.6037C50.2311 28.1397 50.1031 27.7637 49.8471 27.4757C49.5911 27.1877 49.2591 27.0437 48.8511 27.0437C48.4831 27.0437 48.1911 27.1637 47.9751 27.4037C47.7671 27.6437 47.6631 27.9677 47.6631 28.3757C47.6631 28.8317 47.7911 29.2037 48.0471 29.4917C48.3031 29.7717 48.6351 29.9117 49.0431 29.9117ZM48.7671 30.4397C48.3751 30.4397 48.0271 30.3637 47.7231 30.2117C47.4271 30.0517 47.1911 29.8357 47.0151 29.5637C46.8471 29.2837 46.7631 28.9677 46.7631 28.6157C46.7631 28.2157 46.8631 27.8517 47.0631 27.5237C47.2711 27.1957 47.5431 26.9317 47.8791 26.7317C48.2231 26.5317 48.5951 26.4317 48.9951 26.4317C49.2191 26.4317 49.4311 26.4557 49.6311 26.5037C49.8391 26.5437 50.0191 26.5637 50.1711 26.5637C50.3311 26.5477 50.5551 26.5077 50.8431 26.4437C51.1391 26.3797 51.4671 26.2997 51.8271 26.2037L51.8631 26.2517L51.7311 26.9237C51.5551 26.9477 51.3711 26.9677 51.1791 26.9837C50.9871 26.9997 50.8271 27.0157 50.6991 27.0317L50.6511 27.0917C50.9711 27.4437 51.1311 27.8517 51.1311 28.3157C51.1311 28.7077 51.0231 29.0637 50.8071 29.3837C50.5991 29.7037 50.3151 29.9597 49.9551 30.1517C49.6031 30.3437 49.2071 30.4397 48.7671 30.4397ZM55.9668 31.6517C56.2068 31.5877 56.3788 31.4957 56.4828 31.3757C56.5868 31.2477 56.6388 31.0797 56.6388 30.8717L56.6868 28.4957C56.6868 28.0957 56.5988 27.7877 56.4228 27.5717C56.2548 27.3557 56.0108 27.2477 55.6908 27.2477C55.4988 27.2477 55.3028 27.2877 55.1028 27.3677C54.9028 27.4477 54.7228 27.5357 54.5628 27.6317C54.4108 27.7277 54.2948 27.8077 54.2148 27.8717C54.2068 28.0797 54.1948 28.3277 54.1788 28.6157C54.1708 28.8957 54.1588 29.1837 54.1428 29.4797C54.1348 29.7757 54.1268 30.0437 54.1188 30.2837C54.1108 30.5237 54.1068 30.7037 54.1068 30.8237C54.1068 31.0717 54.1388 31.2477 54.2028 31.3517C54.2748 31.4477 54.3868 31.4957 54.5388 31.4957C54.6108 31.4957 54.6988 31.4917 54.8028 31.4837C54.9068 31.4757 54.9588 31.4717 54.9588 31.4717L54.9828 31.5197L54.8748 32.0357C54.8748 32.0357 54.8148 32.0317 54.6948 32.0237C54.5748 32.0157 54.4308 32.0077 54.2628 31.9997C54.0948 31.9997 53.9348 31.9997 53.7828 31.9997C53.6148 31.9997 53.4388 32.0037 53.2548 32.0117C53.0708 32.0277 52.9148 32.0397 52.7868 32.0477C52.6588 32.0637 52.5948 32.0717 52.5948 32.0717L52.6548 31.5797C52.8868 31.5397 53.0508 31.4677 53.1468 31.3637C53.2428 31.2597 53.2908 31.0957 53.2908 30.8717V27.9437C53.2908 27.6717 53.2468 27.4837 53.1588 27.3797C53.0708 27.2677 52.9188 27.2117 52.7028 27.2117H52.5708L52.5348 27.1637L52.5708 26.7677C52.8508 26.7197 53.1188 26.6717 53.3748 26.6237C53.6308 26.5677 53.8388 26.5197 53.9988 26.4797C54.1668 26.4397 54.2508 26.4197 54.2508 26.4197L54.3228 26.5157C54.3228 26.5157 54.3028 26.5957 54.2628 26.7557C54.2308 26.9157 54.2068 27.0997 54.1908 27.3077L54.2148 27.3437C54.2868 27.2957 54.3988 27.2237 54.5508 27.1277C54.7108 27.0237 54.8788 26.9197 55.0548 26.8157C55.2388 26.7117 55.4148 26.6237 55.5828 26.5517C55.7508 26.4717 55.8828 26.4317 55.9788 26.4317C56.4828 26.4317 56.8828 26.5717 57.1788 26.8517C57.4748 27.1317 57.6228 27.5077 57.6228 27.9797C57.6228 28.0837 57.6148 28.2557 57.5988 28.4957C57.5828 28.7357 57.5628 29.0037 57.5388 29.2997C57.5148 29.5957 57.4948 29.8797 57.4788 30.1517C57.4628 30.4237 57.4548 30.6477 57.4548 30.8237C57.4548 31.0557 57.4868 31.2277 57.5508 31.3397C57.6148 31.4437 57.7228 31.4957 57.8748 31.4957C57.9468 31.4957 58.0348 31.4917 58.1388 31.4837C58.2428 31.4757 58.2948 31.4717 58.2948 31.4717L58.3188 31.5197L58.2228 32.0357C58.2228 32.0357 58.1868 32.0317 58.1148 32.0237C58.0508 32.0237 57.9628 32.0197 57.8508 32.0117C57.7468 32.0117 57.6308 32.0077 57.5028 31.9997C57.3828 31.9997 57.2668 31.9997 57.1548 31.9997C57.0268 31.9997 56.8908 32.0077 56.7468 32.0237C56.6108 32.0397 56.4788 32.0557 56.3508 32.0717C56.2228 32.0877 56.1188 32.1037 56.0388 32.1197C55.9588 32.1357 55.9188 32.1437 55.9188 32.1437L55.9668 31.6517ZM63.6239 32.1437C63.2479 32.1437 62.9159 32.1077 62.6279 32.0357C62.3479 31.9717 62.1279 31.9077 61.9679 31.8437C61.8159 31.7717 61.7399 31.7357 61.7399 31.7357L61.6799 31.6157C61.6799 31.6157 61.6879 31.5637 61.7039 31.4597C61.7199 31.3477 61.7359 31.1997 61.7519 31.0157C61.7679 30.8237 61.7839 30.5997 61.7999 30.3437C61.8159 30.0877 61.8239 29.8157 61.8239 29.5277L62.3639 29.4677C62.3639 30.0437 62.4039 30.4837 62.4839 30.7877C62.5639 31.0837 62.7159 31.2877 62.9399 31.3997C63.1639 31.5037 63.4919 31.5557 63.9239 31.5557C64.4199 31.5557 64.8199 31.4397 65.1239 31.2077C65.4359 30.9677 65.5919 30.6437 65.5919 30.2357C65.5919 29.9717 65.5039 29.7437 65.3279 29.5517C65.1519 29.3597 64.9239 29.1837 64.6439 29.0237C64.3719 28.8637 64.0799 28.7037 63.7679 28.5437C63.4479 28.3757 63.1359 28.1957 62.8319 28.0037C62.5359 27.8117 62.2919 27.5917 62.0999 27.3437C61.9079 27.0877 61.8119 26.7877 61.8119 26.4437C61.8119 26.0197 61.9319 25.6397 62.1719 25.3037C62.4199 24.9677 62.7519 24.7037 63.1679 24.5117C63.5839 24.3117 64.0519 24.2117 64.5719 24.2117C64.9319 24.2117 65.2479 24.2357 65.5199 24.2837C65.7999 24.3317 66.0159 24.3837 66.1679 24.4397C66.3279 24.4877 66.4079 24.5117 66.4079 24.5117L66.4439 24.5837C66.4439 24.5837 66.4239 24.6757 66.3839 24.8597C66.3519 25.0437 66.3159 25.2917 66.2759 25.6037C66.2359 25.9077 66.2039 26.2437 66.1799 26.6117L65.7119 26.6597L65.6399 26.5997C65.6399 26.5997 65.6439 26.5437 65.6519 26.4317C65.6679 26.3117 65.6759 26.1597 65.6759 25.9757C65.6759 25.5517 65.5719 25.2597 65.3639 25.0997C65.1639 24.9397 64.7919 24.8597 64.2479 24.8597C63.8079 24.8597 63.4439 24.9717 63.1559 25.1957C62.8759 25.4117 62.7359 25.6837 62.7359 26.0117C62.7359 26.2517 62.8119 26.4677 62.9639 26.6597C63.1159 26.8437 63.3159 27.0117 63.5639 27.1637C63.8119 27.3157 64.0799 27.4677 64.3679 27.6197C64.7199 27.7957 65.0639 27.9837 65.3999 28.1837C65.7439 28.3837 66.0279 28.6117 66.2519 28.8677C66.4759 29.1237 66.5879 29.4357 66.5879 29.8037C66.5879 30.2597 66.4599 30.6637 66.2039 31.0157C65.9559 31.3677 65.6079 31.6437 65.1599 31.8437C64.7199 32.0437 64.2079 32.1437 63.6239 32.1437ZM69.8312 32.1437C69.2872 32.1437 68.9032 32.0357 68.6792 31.8197C68.4552 31.5957 68.3432 31.2197 68.3432 30.6917V27.7397C68.3432 27.5237 68.2952 27.3717 68.1992 27.2837C68.1032 27.1957 67.9232 27.1477 67.6592 27.1397L67.6112 27.0677L67.6712 26.7077C67.8632 26.6117 68.0472 26.5037 68.2232 26.3837C68.4072 26.2557 68.5672 26.1357 68.7032 26.0237C68.8472 25.9037 68.9592 25.8077 69.0392 25.7357C69.1192 25.6557 69.1592 25.6157 69.1592 25.6157L69.3992 25.7117C69.3992 25.7117 69.3872 25.7877 69.3632 25.9397C69.3472 26.0917 69.3272 26.3157 69.3032 26.6117L71.0672 26.5757L71.1032 26.6117L70.9952 27.2477L69.2552 27.2117C69.2312 27.5877 69.2112 28.0277 69.1952 28.5317C69.1792 29.0357 69.1712 29.5957 69.1712 30.2117C69.1712 30.6197 69.2392 30.9077 69.3752 31.0757C69.5192 31.2437 69.7632 31.3277 70.1072 31.3277C70.3072 31.3277 70.4912 31.2917 70.6592 31.2197C70.8352 31.1477 70.9232 31.1117 70.9232 31.1117L71.0432 31.4237C71.0432 31.4237 70.9952 31.4597 70.8992 31.5317C70.8032 31.6037 70.6832 31.6877 70.5392 31.7837C70.4032 31.8797 70.2672 31.9637 70.1312 32.0357C70.0032 32.1077 69.9032 32.1437 69.8312 32.1437ZM72.4001 27.8357C72.4001 27.6277 72.3641 27.4677 72.2921 27.3557C72.2201 27.2437 72.1081 27.1877 71.9561 27.1877C71.8921 27.1877 71.8241 27.1957 71.7521 27.2117C71.6881 27.2277 71.6561 27.2357 71.6561 27.2357L71.7041 26.7917C71.8881 26.7597 72.0801 26.7237 72.2801 26.6837C72.4801 26.6437 72.6641 26.6037 72.8321 26.5637C73.0081 26.5237 73.1481 26.4917 73.2521 26.4677C73.3641 26.4437 73.4201 26.4317 73.4201 26.4317L73.4921 26.5757C73.4521 26.6797 73.4121 26.8597 73.3721 27.1157C73.3401 27.3637 73.3081 27.6557 73.2761 27.9917C73.2441 28.3277 73.2201 28.6837 73.2041 29.0597C73.1881 29.4277 73.1801 29.7877 73.1801 30.1397C73.1801 30.9237 73.5001 31.3157 74.1401 31.3157C74.4201 31.3157 74.6801 31.2397 74.9201 31.0877C75.1681 30.9277 75.3921 30.7757 75.5921 30.6317V27.8477C75.5921 27.6077 75.5481 27.4397 75.4601 27.3437C75.3721 27.2477 75.2161 27.1997 74.9921 27.1997C74.9601 27.1997 74.9041 27.2037 74.8241 27.2117C74.7441 27.2117 74.7041 27.2117 74.7041 27.2117L74.7521 26.7797C74.9681 26.7477 75.1841 26.7117 75.4001 26.6717C75.6161 26.6317 75.8121 26.5957 75.9881 26.5637C76.1721 26.5237 76.3201 26.4917 76.4321 26.4677C76.5441 26.4437 76.6001 26.4317 76.6001 26.4317L76.6721 26.5757C76.6241 26.6957 76.5801 26.9637 76.5401 27.3797C76.5001 27.7957 76.4681 28.2997 76.4441 28.8917C76.4201 29.4837 76.4081 30.0997 76.4081 30.7397C76.4081 30.9157 76.4521 31.0517 76.5401 31.1477C76.6281 31.2437 76.7481 31.2917 76.9001 31.2917C77.0281 31.2917 77.1441 31.2677 77.2481 31.2197C77.3601 31.1637 77.4481 31.1117 77.5121 31.0637C77.5841 31.0157 77.6201 30.9917 77.6201 30.9917L77.7881 31.1837C77.7881 31.1837 77.7521 31.2317 77.6801 31.3277C77.6161 31.4237 77.5281 31.5357 77.4161 31.6637C77.3121 31.7917 77.2001 31.9037 77.0801 31.9997C76.9601 32.0957 76.8481 32.1437 76.7441 32.1437C76.0961 32.1437 75.7401 31.8197 75.6761 31.1717L75.6161 31.1477C75.2321 31.4437 74.8841 31.6837 74.5721 31.8677C74.2681 32.0517 74.0601 32.1437 73.9481 32.1437C73.4361 32.1437 73.0401 32.0237 72.7601 31.7837C72.4881 31.5437 72.3521 31.1997 72.3521 30.7517L72.4001 27.8357ZM83.2123 32.1437C82.5883 32.1437 82.2323 31.8597 82.1443 31.2917L82.0603 31.2557C81.6443 31.5357 81.3123 31.7477 81.0643 31.8917C80.8163 32.0357 80.6483 32.1077 80.5603 32.1077C80.1043 32.1077 79.7003 32.0037 79.3483 31.7957C79.0043 31.5797 78.7323 31.2837 78.5323 30.9077C78.3403 30.5237 78.2443 30.0797 78.2443 29.5757C78.2443 28.9997 78.3763 28.4757 78.6403 28.0037C78.9123 27.5237 79.2763 27.1437 79.7323 26.8637C80.1883 26.5757 80.6883 26.4317 81.2323 26.4317C81.3443 26.4317 81.4683 26.4357 81.6043 26.4437C81.7403 26.4517 81.8923 26.4637 82.0603 26.4797V24.4877C82.0603 24.2637 82.0243 24.0997 81.9523 23.9957C81.8803 23.8917 81.7683 23.8397 81.6163 23.8397C81.5523 23.8397 81.4843 23.8477 81.4123 23.8637C81.3483 23.8797 81.3163 23.8877 81.3163 23.8877L81.3643 23.4437C81.5723 23.4197 81.7803 23.3877 81.9883 23.3477C82.1963 23.3077 82.3883 23.2677 82.5643 23.2277C82.7403 23.1877 82.8803 23.1557 82.9843 23.1317C83.0883 23.1077 83.1403 23.0957 83.1403 23.0957L83.2123 23.2517C83.1803 23.3077 83.1483 23.4877 83.1163 23.7917C83.0843 24.0957 83.0523 24.4957 83.0203 24.9917C82.9963 25.4877 82.9723 26.0477 82.9483 26.6717C82.9243 27.2877 82.9043 27.9437 82.8883 28.6397C82.8803 29.3357 82.8763 30.0357 82.8763 30.7397C82.8763 30.9157 82.9203 31.0517 83.0083 31.1477C83.0963 31.2437 83.2163 31.2917 83.3683 31.2917C83.4963 31.2917 83.6123 31.2677 83.7163 31.2197C83.8283 31.1637 83.9163 31.1117 83.9803 31.0637C84.0523 31.0157 84.0883 30.9917 84.0883 30.9917L84.2563 31.1837C84.2563 31.1837 84.2283 31.2237 84.1723 31.3037C84.1163 31.3837 84.0403 31.4837 83.9443 31.6037C83.8483 31.7157 83.7363 31.8237 83.6083 31.9277C83.4883 32.0317 83.3563 32.1037 83.2123 32.1437ZM80.7523 31.3277C80.8963 31.3277 81.0443 31.2957 81.1963 31.2317C81.3483 31.1677 81.4883 31.0957 81.6163 31.0157C81.7523 30.9277 81.8603 30.8517 81.9403 30.7877C82.0203 30.7237 82.0603 30.6917 82.0603 30.6917V27.4037C82.0603 27.4037 81.9563 27.3597 81.7483 27.2717C81.5403 27.1757 81.2563 27.1277 80.8963 27.1277C80.3603 27.1277 79.9363 27.3117 79.6243 27.6797C79.3203 28.0397 79.1683 28.5357 79.1683 29.1677C79.1683 29.5677 79.2363 29.9317 79.3723 30.2597C79.5163 30.5877 79.7083 30.8477 79.9483 31.0397C80.1883 31.2317 80.4563 31.3277 80.7523 31.3277ZM84.7856 32.1437L84.8336 31.6517C85.0736 31.5877 85.2456 31.4957 85.3496 31.3757C85.4536 31.2477 85.5056 31.0797 85.5056 30.8717V27.8237C85.5056 27.5997 85.4696 27.4357 85.3976 27.3317C85.3256 27.2277 85.2136 27.1757 85.0616 27.1757C84.9976 27.1757 84.9296 27.1837 84.8576 27.1997C84.7936 27.2157 84.7616 27.2237 84.7616 27.2237L84.8096 26.7797C85.0096 26.7477 85.2096 26.7117 85.4096 26.6717C85.6176 26.6317 85.8056 26.5957 85.9736 26.5637C86.1416 26.5237 86.2776 26.4917 86.3816 26.4677C86.4856 26.4437 86.5376 26.4317 86.5376 26.4317L86.5976 26.5757C86.5656 26.6557 86.5296 26.8357 86.4896 27.1157C86.4576 27.3877 86.4296 27.7237 86.4056 28.1237C86.3816 28.5157 86.3616 28.9477 86.3456 29.4197C86.3296 29.8837 86.3216 30.3517 86.3216 30.8237C86.3216 31.0557 86.3536 31.2277 86.4176 31.3397C86.4816 31.4437 86.5896 31.4957 86.7416 31.4957C86.8136 31.4957 86.9016 31.4917 87.0056 31.4837C87.1096 31.4757 87.1616 31.4717 87.1616 31.4717L87.1856 31.5197L87.0896 32.0357C87.0896 32.0357 87.0536 32.0317 86.9816 32.0237C86.9176 32.0237 86.8296 32.0197 86.7176 32.0117C86.6136 32.0117 86.4976 32.0077 86.3696 31.9997C86.2496 31.9997 86.1336 31.9997 86.0216 31.9997C85.8536 31.9997 85.6736 32.0117 85.4816 32.0357C85.2896 32.0597 85.1256 32.0837 84.9896 32.1077C84.8536 32.1317 84.7856 32.1437 84.7856 32.1437ZM85.8416 25.0157C85.6416 25.0157 85.4936 24.9517 85.3976 24.8237C85.3016 24.6957 85.2536 24.5557 85.2536 24.4037C85.2536 24.2117 85.3216 24.0477 85.4576 23.9117C85.5936 23.7677 85.7616 23.6957 85.9616 23.6957C86.1536 23.6957 86.2976 23.7597 86.3936 23.8877C86.4976 24.0077 86.5496 24.1477 86.5496 24.3077C86.5496 24.4997 86.4816 24.6677 86.3456 24.8117C86.2176 24.9477 86.0496 25.0157 85.8416 25.0157ZM90.4043 32.1437C89.9483 32.1437 89.5443 32.0317 89.1923 31.8077C88.8403 31.5837 88.5643 31.2717 88.3643 30.8717C88.1723 30.4637 88.0763 29.9997 88.0763 29.4797C88.0763 28.9037 88.1963 28.3877 88.4363 27.9317C88.6843 27.4677 89.0203 27.1037 89.4443 26.8397C89.8683 26.5677 90.3403 26.4317 90.8603 26.4317C91.3163 26.4317 91.7203 26.5437 92.0723 26.7677C92.4243 26.9917 92.6963 27.3037 92.8883 27.7037C93.0883 28.1037 93.1883 28.5677 93.1883 29.0957C93.1883 29.6637 93.0643 30.1797 92.8163 30.6437C92.5763 31.1077 92.2443 31.4757 91.8203 31.7477C91.4043 32.0117 90.9323 32.1437 90.4043 32.1437ZM90.7403 31.5557C91.1883 31.5557 91.5443 31.3757 91.8083 31.0157C92.0723 30.6477 92.2043 30.1517 92.2043 29.5277C92.2043 29.0477 92.1323 28.6237 91.9883 28.2557C91.8443 27.8877 91.6443 27.5997 91.3883 27.3917C91.1323 27.1837 90.8363 27.0797 90.5003 27.0797C90.0523 27.0797 89.6963 27.2637 89.4323 27.6317C89.1683 27.9997 89.0363 28.4997 89.0363 29.1317C89.0363 29.6117 89.1083 30.0357 89.2523 30.4037C89.3963 30.7637 89.5963 31.0477 89.8523 31.2557C90.1083 31.4557 90.4043 31.5557 90.7403 31.5557Z" fill="#121111"/>
<path d="M28.2498 20H23.7612V5.45455H28.4487C29.8596 5.45455 31.067 5.74574 32.0708 6.32812C33.0746 6.90578 33.844 7.73674 34.3791 8.82102C34.9141 9.90057 35.1816 11.1932 35.1816 12.6989C35.1816 14.214 34.9117 15.5185 34.372 16.6122C33.8322 17.7012 33.0462 18.5393 32.014 19.1264C30.9818 19.7088 29.7271 20 28.2498 20ZM25.5225 18.4375H28.1362C29.3388 18.4375 30.3355 18.2055 31.1262 17.7415C31.9169 17.2775 32.5064 16.617 32.8947 15.7599C33.2829 14.9029 33.4771 13.8826 33.4771 12.6989C33.4771 11.5246 33.2853 10.5137 32.9018 9.66619C32.5183 8.81392 31.9453 8.16051 31.183 7.70597C30.4207 7.24669 29.4714 7.01705 28.335 7.01705H25.5225V18.4375ZM42.4828 20.2273C41.4316 20.2273 40.5249 19.9953 39.7626 19.5312C39.005 19.0625 38.4203 18.4091 38.0083 17.571C37.6011 16.7282 37.3975 15.7481 37.3975 14.6307C37.3975 13.5133 37.6011 12.5284 38.0083 11.6761C38.4203 10.8191 38.9932 10.1515 39.7271 9.6733C40.4657 9.19034 41.3275 8.94886 42.3123 8.94886C42.8805 8.94886 43.4416 9.04356 43.9955 9.23295C44.5495 9.42235 45.0538 9.73011 45.5083 10.1562C45.9629 10.5777 46.3251 11.1364 46.595 11.8324C46.8649 12.5284 46.9998 13.3854 46.9998 14.4034V15.1136H38.5907V13.6648H45.2953C45.2953 13.0492 45.1721 12.5 44.9259 12.017C44.6845 11.5341 44.3388 11.1529 43.889 10.8736C43.4439 10.5942 42.9184 10.4545 42.3123 10.4545C41.6447 10.4545 41.067 10.6203 40.5793 10.9517C40.0964 11.2784 39.7247 11.7045 39.4643 12.2301C39.2039 12.7557 39.0737 13.3191 39.0737 13.9205V14.8864C39.0737 15.7102 39.2157 16.4086 39.4998 16.9815C39.7886 17.5497 40.1887 17.983 40.7001 18.2812C41.2114 18.5748 41.8057 18.7216 42.4828 18.7216C42.9231 18.7216 43.3208 18.66 43.6759 18.5369C44.0358 18.4091 44.3459 18.2197 44.6063 17.9688C44.8668 17.7131 45.068 17.3958 45.21 17.017L46.8293 17.4716C46.6589 18.0208 46.3724 18.5038 45.97 18.9205C45.5675 19.3324 45.0703 19.6544 44.4785 19.8864C43.8866 20.1136 43.2214 20.2273 42.4828 20.2273ZM57.2768 11.5341L55.7711 11.9602C55.6764 11.7093 55.5367 11.4654 55.3521 11.2287C55.1721 10.9872 54.9259 10.7884 54.6134 10.6321C54.3009 10.4759 53.9008 10.3977 53.4132 10.3977C52.7455 10.3977 52.1892 10.5516 51.7441 10.8594C51.3038 11.1624 51.0836 11.5483 51.0836 12.017C51.0836 12.4337 51.2351 12.7628 51.5382 13.0043C51.8412 13.2457 52.3147 13.447 52.9586 13.608L54.5779 14.0057C55.5533 14.2424 56.2801 14.6046 56.7583 15.0923C57.2365 15.5753 57.4757 16.1979 57.4757 16.9602C57.4757 17.5852 57.2957 18.1439 56.9359 18.6364C56.5808 19.1288 56.0836 19.517 55.4444 19.8011C54.8052 20.0852 54.0618 20.2273 53.2143 20.2273C52.1016 20.2273 51.1807 19.9858 50.4515 19.5028C49.7223 19.0199 49.2607 18.3144 49.0666 17.3864L50.6575 16.9886C50.809 17.5758 51.0954 18.0161 51.5168 18.3097C51.943 18.6032 52.4993 18.75 53.1859 18.75C53.9671 18.75 54.5874 18.5843 55.0467 18.2528C55.5107 17.9167 55.7427 17.5142 55.7427 17.0455C55.7427 16.6667 55.6101 16.3494 55.345 16.0938C55.0798 15.8333 54.6726 15.6392 54.1234 15.5114L52.3052 15.0852C51.3061 14.8485 50.5722 14.4815 50.1035 13.9844C49.6395 13.4825 49.4075 12.8551 49.4075 12.1023C49.4075 11.4867 49.5803 10.9422 49.9259 10.4688C50.2763 9.99527 50.7522 9.62358 51.3535 9.35369C51.9596 9.08381 52.6461 8.94886 53.4132 8.94886C54.4927 8.94886 55.3402 9.18561 55.9558 9.65909C56.576 10.1326 57.0164 10.7576 57.2768 11.5341ZM59.9987 20V9.09091H61.6749V20H59.9987ZM60.851 7.27273C60.5243 7.27273 60.2426 7.16146 60.0058 6.93892C59.7738 6.71638 59.6578 6.44886 59.6578 6.13636C59.6578 5.82386 59.7738 5.55634 60.0058 5.33381C60.2426 5.11127 60.5243 5 60.851 5C61.1777 5 61.4571 5.11127 61.6891 5.33381C61.9258 5.55634 62.0442 5.82386 62.0442 6.13636C62.0442 6.44886 61.9258 6.71638 61.6891 6.93892C61.4571 7.16146 61.1777 7.27273 60.851 7.27273ZM69.1482 24.3182C68.3386 24.3182 67.6426 24.214 67.0602 24.0057C66.4778 23.8021 65.9925 23.5322 65.6042 23.196C65.2207 22.8646 64.9153 22.5095 64.688 22.1307L66.0232 21.1932C66.1748 21.392 66.3665 21.6193 66.5985 21.875C66.8305 22.1354 67.1478 22.3603 67.5502 22.5497C67.9574 22.7438 68.4901 22.8409 69.1482 22.8409C70.0289 22.8409 70.7557 22.6278 71.3286 22.2017C71.9016 21.7756 72.188 21.108 72.188 20.1989V17.983H72.046C71.9229 18.1818 71.7477 18.428 71.5204 18.7216C71.2979 19.0104 70.9759 19.2685 70.5545 19.4957C70.1378 19.7183 69.5744 19.8295 68.8641 19.8295C67.9835 19.8295 67.1927 19.6212 66.492 19.2045C65.796 18.7879 65.2444 18.1818 64.8372 17.3864C64.4347 16.5909 64.2335 15.625 64.2335 14.4886C64.2335 13.3712 64.43 12.3982 64.823 11.5696C65.2159 10.7363 65.7628 10.0923 66.4636 9.63778C67.1643 9.1785 67.974 8.94886 68.8926 8.94886C69.6028 8.94886 70.1662 9.06723 70.5829 9.30398C71.0043 9.53598 71.3263 9.80114 71.5488 10.0994C71.7761 10.393 71.9513 10.6345 72.0744 10.8239H72.2448V9.09091H73.8641V20.3125C73.8641 21.25 73.6511 22.0123 73.2249 22.5994C72.8035 23.1913 72.2354 23.6245 71.5204 23.8991C70.8102 24.1785 70.0194 24.3182 69.1482 24.3182ZM69.0914 18.3239C69.7638 18.3239 70.3319 18.17 70.796 17.8622C71.26 17.5545 71.6127 17.1117 71.8542 16.5341C72.0957 15.9564 72.2164 15.2652 72.2164 14.4602C72.2164 13.6742 72.098 12.9806 71.8613 12.3793C71.6246 11.7779 71.2742 11.3068 70.8102 10.9659C70.3462 10.625 69.7732 10.4545 69.0914 10.4545C68.3812 10.4545 67.7893 10.6345 67.3159 10.9943C66.8471 11.3542 66.4944 11.8371 66.2576 12.4432C66.0256 13.0492 65.9096 13.7216 65.9096 14.4602C65.9096 15.2178 66.028 15.8878 66.2647 16.4702C66.5062 17.0478 66.8613 17.5024 67.3301 17.8338C67.8035 18.1605 68.3907 18.3239 69.0914 18.3239ZM78.6085 13.4375V20H76.9323V9.09091H78.5516V10.7955H78.6937C78.9494 10.2415 79.3376 9.7964 79.8585 9.46023C80.3793 9.11932 81.0516 8.94886 81.8755 8.94886C82.6141 8.94886 83.2605 9.10038 83.8144 9.40341C84.3684 9.7017 84.7993 10.1562 85.107 10.767C85.4148 11.3731 85.5687 12.1402 85.5687 13.0682V20H83.8926V13.1818C83.8926 12.3248 83.67 11.6572 83.2249 11.179C82.7799 10.696 82.1691 10.4545 81.3926 10.4545C80.8575 10.4545 80.3793 10.5705 79.9579 10.8026C79.5412 11.0346 79.2122 11.3731 78.9707 11.8182C78.7292 12.2633 78.6085 12.803 78.6085 13.4375Z" fill="#121111"/>
<path d="M101.466 9.99973H99.7047C99.6006 9.4931 99.4183 9.04803 99.1579 8.6645C98.9022 8.28098 98.5897 7.95901 98.2204 7.69859C97.8558 7.43344 97.451 7.23458 97.0059 7.102C96.5608 6.96943 96.0968 6.90314 95.6138 6.90314C94.7332 6.90314 93.9353 7.12568 93.2204 7.57075C92.5101 8.01583 91.9443 8.67161 91.5229 9.53808C91.1063 10.4045 90.8979 11.4675 90.8979 12.727C90.8979 13.9864 91.1063 15.0494 91.5229 15.9159C91.9443 16.7824 92.5101 17.4381 93.2204 17.8832C93.9353 18.3283 94.7332 18.5508 95.6138 18.5508C96.0968 18.5508 96.5608 18.4845 97.0059 18.352C97.451 18.2194 97.8558 18.0229 98.2204 17.7625C98.5897 17.4973 98.9022 17.173 99.1579 16.7895C99.4183 16.4012 99.6006 15.9561 99.7047 15.4542H101.466C101.333 16.1976 101.092 16.8629 100.741 17.45C100.391 18.0371 99.9557 18.5366 99.4349 18.9486C98.914 19.3558 98.3293 19.6659 97.6806 19.879C97.0367 20.092 96.3477 20.1986 95.6138 20.1986C94.3733 20.1986 93.2701 19.8955 92.3042 19.2895C91.3383 18.6834 90.5783 17.8217 90.0243 16.7042C89.4704 15.5868 89.1934 14.2611 89.1934 12.727C89.1934 11.1929 89.4704 9.86715 90.0243 8.74973C90.5783 7.63231 91.3383 6.77056 92.3042 6.1645C93.2701 5.55844 94.3733 5.25541 95.6138 5.25541C96.3477 5.25541 97.0367 5.36195 97.6806 5.57501C98.3293 5.78808 98.914 6.10058 99.4349 6.51251C99.9557 6.91971 100.391 7.41687 100.741 8.00399C101.092 8.58638 101.333 9.25162 101.466 9.99973ZM104.085 19.9997V9.09064H105.704V10.7383H105.818C106.017 10.1986 106.377 9.76062 106.897 9.42445C107.418 9.08827 108.005 8.92018 108.659 8.92018C108.782 8.92018 108.936 8.92255 109.12 8.92729C109.305 8.93202 109.445 8.93912 109.539 8.94859V10.6531C109.483 10.6389 109.352 10.6176 109.149 10.5892C108.95 10.556 108.739 10.5395 108.517 10.5395C107.986 10.5395 107.513 10.6507 107.096 10.8733C106.684 11.0911 106.358 11.3941 106.116 11.7824C105.879 12.1659 105.761 12.6039 105.761 13.0963V19.9997H104.085ZM114.737 20.2554C114.045 20.2554 113.418 20.1252 112.854 19.8648C112.291 19.5996 111.844 19.2185 111.512 18.7213C111.181 18.2194 111.015 17.6133 111.015 16.9031C111.015 16.2781 111.138 15.7715 111.384 15.3832C111.63 14.9902 111.96 14.6825 112.371 14.4599C112.783 14.2374 113.238 14.0717 113.735 13.9628C114.237 13.8491 114.741 13.7592 115.248 13.6929C115.911 13.6077 116.448 13.5437 116.86 13.5011C117.277 13.4538 117.58 13.3756 117.769 13.2667C117.963 13.1578 118.06 12.9684 118.06 12.6986V12.6417C118.06 11.941 117.869 11.3965 117.485 11.0082C117.106 10.62 116.531 10.4258 115.759 10.4258C114.959 10.4258 114.332 10.601 113.877 10.9514C113.423 11.3018 113.103 11.6758 112.918 12.0736L111.327 11.5054C111.612 10.8425 111.99 10.3264 112.464 9.95712C112.942 9.58306 113.463 9.32265 114.026 9.17587C114.594 9.02435 115.153 8.94859 115.702 8.94859C116.053 8.94859 116.455 8.99121 116.91 9.07643C117.369 9.15693 117.812 9.32501 118.238 9.5807C118.669 9.83638 119.026 10.2222 119.31 10.7383C119.594 11.2544 119.737 11.9457 119.737 12.8122V19.9997H118.06V18.5224H117.975C117.862 18.7592 117.672 19.0125 117.407 19.2824C117.142 19.5523 116.789 19.7819 116.349 19.9713C115.908 20.1607 115.371 20.2554 114.737 20.2554ZM114.992 18.7497C115.655 18.7497 116.214 18.6195 116.668 18.3591C117.128 18.0987 117.473 17.7625 117.705 17.3506C117.942 16.9386 118.06 16.5054 118.06 16.0508V14.5167C117.989 14.602 117.833 14.6801 117.592 14.7511C117.355 14.8174 117.08 14.8766 116.768 14.9287C116.46 14.976 116.159 15.0186 115.866 15.0565C115.577 15.0897 115.343 15.1181 115.163 15.1417C114.727 15.1986 114.32 15.2909 113.941 15.4187C113.567 15.5418 113.264 15.7289 113.032 15.9798C112.805 16.226 112.691 16.5622 112.691 16.9883C112.691 17.5707 112.906 18.0111 113.337 18.3094C113.773 18.6029 114.325 18.7497 114.992 18.7497ZM127.654 9.09064V10.5111H121.773V9.09064H127.654ZM123.534 19.9997V7.58496C123.534 6.95996 123.681 6.43912 123.975 6.02246C124.268 5.60579 124.65 5.29329 125.118 5.08496C125.587 4.87662 126.082 4.77246 126.603 4.77246C127.015 4.77246 127.351 4.8056 127.611 4.87189C127.872 4.93818 128.066 4.99973 128.194 5.05655L127.711 6.50541C127.625 6.477 127.507 6.44149 127.355 6.39888C127.209 6.35626 127.015 6.33496 126.773 6.33496C126.219 6.33496 125.819 6.47463 125.573 6.75399C125.331 7.03335 125.211 7.44291 125.211 7.98268V19.9997H123.534ZM134.747 9.09064V10.5111H129.094V9.09064H134.747ZM130.741 6.477H132.418V16.8747C132.418 17.3482 132.486 17.7033 132.624 17.94C132.766 18.172 132.946 18.3283 133.163 18.4088C133.386 18.4845 133.62 18.5224 133.866 18.5224C134.051 18.5224 134.203 18.513 134.321 18.494C134.439 18.4703 134.534 18.4514 134.605 18.4372L134.946 19.9429C134.832 19.9855 134.674 20.0281 134.47 20.0707C134.267 20.1181 134.009 20.1417 133.696 20.1417C133.223 20.1417 132.759 20.0399 132.304 19.8363C131.854 19.6327 131.48 19.3226 131.182 18.9059C130.888 18.4893 130.741 17.9637 130.741 17.3292V6.477Z" fill="#121111"/>
<path d="M6.34016 20.2397C6.34016 20.2397 6.24016 20.2264 6.04016 20.1997C5.84016 20.173 5.58683 20.1464 5.28016 20.1197C4.97349 20.093 4.65349 20.0664 4.32016 20.0397C4.00016 20.013 3.71349 19.9997 3.46016 19.9997C3.12683 19.9997 2.78016 20.0197 2.42016 20.0597C2.07349 20.0997 1.77349 20.1397 1.52016 20.1797C1.28016 20.2197 1.16016 20.2397 1.16016 20.2397L1.28016 19.3197C1.90683 19.1997 2.32016 19.0264 2.52016 18.7997C2.73349 18.5597 2.84016 18.1597 2.84016 17.5997L2.86016 9.19969C2.86016 8.77302 2.81349 8.48636 2.72016 8.33969C2.62683 8.19302 2.42683 8.11969 2.12016 8.11969C2.00016 8.11969 1.85349 8.12636 1.68016 8.13969C1.52016 8.15302 1.44016 8.15969 1.44016 8.15969L1.40016 8.07969L1.54016 7.19969C1.54016 7.19969 1.61349 7.20636 1.76016 7.21969C1.90683 7.21969 2.08683 7.22636 2.30016 7.23969C2.52683 7.23969 2.76016 7.24636 3.00016 7.25969C3.24016 7.25969 3.45349 7.25969 3.64016 7.25969C3.86683 7.25969 4.14683 7.25969 4.48016 7.25969C4.82683 7.24636 5.16683 7.23302 5.50016 7.21969C5.83349 7.20636 6.11349 7.19969 6.34016 7.19969C6.56683 7.18636 6.68016 7.17969 6.68016 7.17969C7.98683 7.17969 9.13349 7.43302 10.1202 7.93969C11.1069 8.43302 11.8735 9.13302 12.4202 10.0397C12.9802 10.933 13.2602 11.973 13.2602 13.1597C13.2602 14.1597 13.0802 15.0864 12.7202 15.9397C12.3735 16.793 11.8802 17.5464 11.2402 18.1997C10.6135 18.8397 9.88016 19.3397 9.04016 19.6997C8.21349 20.0597 7.31349 20.2397 6.34016 20.2397ZM5.30016 8.15969C5.02016 8.15969 4.83349 8.18636 4.74016 8.23969C4.64683 8.29302 4.59349 8.41302 4.58016 8.59969C4.48683 10.9064 4.41349 12.833 4.36016 14.3797C4.30683 15.9264 4.28016 16.9264 4.28016 17.3797C4.28016 17.8597 4.34683 18.233 4.48016 18.4997C4.62683 18.7664 4.88016 18.953 5.24016 19.0597C5.61349 19.1664 6.13349 19.2197 6.80016 19.2197C8.24016 19.2197 9.37349 18.7264 10.2002 17.7397C11.0269 16.7397 11.4402 15.373 11.4402 13.6397C11.4402 12.4664 11.2002 11.473 10.7202 10.6597C10.2535 9.84636 9.56016 9.22636 8.64016 8.79969C7.73349 8.37302 6.62016 8.15969 5.30016 8.15969Z" fill="#121111"/>
<path d="M10.7798 25.2395C9.56647 25.2395 8.51313 24.9862 7.6198 24.4795C6.72647 23.9728 6.03313 23.2595 5.5398 22.3395C5.04647 21.4062 4.7998 20.3128 4.7998 19.0595C4.7998 18.0462 4.97313 17.1128 5.3198 16.2595C5.66647 15.3928 6.15313 14.6462 6.7798 14.0195C7.40647 13.3795 8.1398 12.8862 8.9798 12.5395C9.83313 12.1928 10.7665 12.0195 11.7798 12.0195C12.1931 12.0195 12.6065 12.0462 13.0198 12.0995C13.4331 12.1395 13.8065 12.1928 14.1398 12.2595C14.4731 12.3262 14.7398 12.3862 14.9398 12.4395C15.1531 12.4795 15.2598 12.4995 15.2598 12.4995L15.3398 12.6195C15.3398 12.6195 15.3065 12.7728 15.2398 13.0795C15.1731 13.3728 15.0998 13.7728 15.0198 14.2795C14.9398 14.7862 14.8798 15.3462 14.8398 15.9595L13.8798 16.0395C13.8798 16.0395 13.8865 15.9328 13.8998 15.7195C13.9265 15.4928 13.9398 15.2728 13.9398 15.0595C13.9398 14.4328 13.6931 13.9662 13.1998 13.6595C12.7198 13.3528 11.9865 13.1995 10.9998 13.1995C10.1065 13.1995 9.32647 13.4128 8.6598 13.8395C8.00647 14.2662 7.4998 14.8662 7.1398 15.6395C6.7798 16.4128 6.5998 17.3328 6.5998 18.3995C6.5998 19.5728 6.78647 20.5995 7.1598 21.4795C7.54647 22.3462 8.0798 23.0262 8.7598 23.5195C9.45313 23.9995 10.2598 24.2395 11.1798 24.2395C12.0865 24.2395 12.8131 23.9862 13.3598 23.4795C13.9198 22.9595 14.3265 22.1595 14.5798 21.0795L15.5398 20.9995C15.5398 20.9995 15.5198 21.0995 15.4798 21.2995C15.4398 21.4995 15.3865 21.7662 15.3198 22.0995C15.2665 22.4195 15.2065 22.7728 15.1398 23.1595C15.0865 23.5328 15.0398 23.8995 14.9998 24.2595L14.8798 24.4395C14.8798 24.4395 14.6998 24.5062 14.3398 24.6395C13.9931 24.7728 13.5131 24.9062 12.8998 25.0395C12.2865 25.1728 11.5798 25.2395 10.7798 25.2395Z" fill="#121111"/>
</svg>
