<svg width="216" height="57" viewBox="0 0 216 57" fill="none" xmlns="http://www.w3.org/2000/svg">
<path d="M44.0231 50.8953C44.0231 50.8953 43.9281 50.8827 43.7381 50.8573C43.5481 50.832 43.3074 50.8067 43.0161 50.7813C42.7247 50.756 42.4207 50.7307 42.1041 50.7053C41.8001 50.68 41.5277 50.6673 41.2871 50.6673C40.9704 50.6673 40.6411 50.6863 40.2991 50.7243C39.9697 50.7623 39.6847 50.8003 39.4441 50.8383C39.2161 50.8763 39.1021 50.8953 39.1021 50.8953L39.2161 50.0213C39.8114 49.9073 40.2041 49.7427 40.3941 49.5273C40.5967 49.2993 40.6981 48.9193 40.6981 48.3873L40.7171 40.4073C40.7171 40.002 40.6727 39.7297 40.5841 39.5903C40.4954 39.451 40.3054 39.3813 40.0141 39.3813C39.9001 39.3813 39.7607 39.3877 39.5961 39.4003C39.4441 39.413 39.3681 39.4193 39.3681 39.4193L39.3301 39.3433L39.4631 38.5073C39.4631 38.5073 39.5327 38.5137 39.6721 38.5263C39.8114 38.5263 39.9824 38.5327 40.1851 38.5453C40.4004 38.5453 40.6221 38.5517 40.8501 38.5643C41.0781 38.5643 41.2807 38.5643 41.4581 38.5643C41.6734 38.5643 41.9394 38.5643 42.2561 38.5643C42.5854 38.5517 42.9084 38.539 43.2251 38.5263C43.5417 38.5137 43.8077 38.5073 44.0231 38.5073C44.2384 38.4947 44.3461 38.4883 44.3461 38.4883C45.5874 38.4883 46.6767 38.729 47.6141 39.2103C48.5514 39.679 49.2797 40.344 49.7991 41.2053C50.3311 42.054 50.5971 43.042 50.5971 44.1693C50.5971 45.1193 50.4261 45.9997 50.0841 46.8103C49.7547 47.621 49.2861 48.3367 48.6781 48.9573C48.0827 49.5653 47.3861 50.0403 46.5881 50.3823C45.8027 50.7243 44.9477 50.8953 44.0231 50.8953ZM43.0351 39.4193C42.7691 39.4193 42.5917 39.4447 42.5031 39.4953C42.4144 39.546 42.3637 39.66 42.3511 39.8373C42.2624 42.0287 42.1927 43.859 42.1421 45.3283C42.0914 46.7977 42.0661 47.7477 42.0661 48.1783C42.0661 48.6343 42.1294 48.989 42.2561 49.2423C42.3954 49.4957 42.6361 49.673 42.9781 49.7743C43.3327 49.8757 43.8267 49.9263 44.4601 49.9263C45.8281 49.9263 46.9047 49.4577 47.6901 48.5203C48.4754 47.5703 48.8681 46.272 48.8681 44.6253C48.8681 43.5107 48.64 42.567 48.1841 41.7943C47.7407 41.0217 47.0821 40.4327 46.2081 40.0273C45.3467 39.622 44.2891 39.4193 43.0351 39.4193ZM56.0334 50.8953C55.2354 50.8953 54.5388 50.718 53.9434 50.3633C53.3481 50.0087 52.8794 49.521 52.5374 48.9003C52.2081 48.267 52.0434 47.5323 52.0434 46.6963C52.0434 46.0503 52.1511 45.436 52.3664 44.8533C52.5944 44.2707 52.9048 43.7577 53.2974 43.3143C53.6901 42.8583 54.1334 42.5037 54.6274 42.2503C55.1341 41.9843 55.6724 41.8513 56.2424 41.8513C58.1298 41.8513 59.0734 42.7697 59.0734 44.6063C59.0734 44.771 59.0608 44.942 59.0354 45.1193C59.0101 45.2967 58.9848 45.436 58.9594 45.5373L58.7124 45.7653H53.4684C53.4558 46.8927 53.6584 47.7857 54.0764 48.4443C54.5071 49.0903 55.1088 49.4703 55.8814 49.5843C56.6541 49.6857 57.5661 49.4957 58.6174 49.0143L58.7314 49.0523L58.9404 49.6033C58.6871 49.7807 58.3831 49.9707 58.0284 50.1733C57.6864 50.376 57.3381 50.547 56.9834 50.6863C56.6288 50.8257 56.3121 50.8953 56.0334 50.8953ZM53.5444 45.0623L56.9834 44.8913C57.1734 44.866 57.3001 44.8217 57.3634 44.7583C57.4268 44.695 57.4584 44.5683 57.4584 44.3783C57.4584 43.8717 57.3191 43.4853 57.0404 43.2193C56.7744 42.9533 56.3881 42.8203 55.8814 42.8203C55.2988 42.8203 54.7921 43.023 54.3614 43.4283C53.9308 43.821 53.6584 44.3657 53.5444 45.0623ZM63.125 50.8953C62.669 50.8953 62.27 50.8573 61.928 50.7813C61.586 50.718 61.32 50.6547 61.13 50.5913C60.9527 50.528 60.864 50.4963 60.864 50.4963L60.807 50.3633C60.8324 50.224 60.8577 49.996 60.883 49.6793C60.921 49.35 60.9527 49.008 60.978 48.6533C61.016 48.2987 61.035 48.02 61.035 47.8173L61.7 47.7223C61.7 48.5583 61.8393 49.1473 62.118 49.4893C62.3967 49.8313 62.8717 50.0023 63.543 50.0023C64.0244 50.0023 64.4297 49.8947 64.759 49.6793C65.0883 49.464 65.253 49.198 65.253 48.8813C65.253 48.666 65.1897 48.4697 65.063 48.2923C64.9363 48.115 64.7147 47.9187 64.398 47.7033C64.0814 47.488 63.6317 47.2283 63.049 46.9243C62.327 46.557 61.8014 46.1833 61.472 45.8033C61.1427 45.4233 60.978 45.0053 60.978 44.5493C60.978 44.03 61.13 43.5677 61.434 43.1623C61.738 42.757 62.156 42.4403 62.688 42.2123C63.22 41.9717 63.8154 41.8513 64.474 41.8513C64.9934 41.8513 65.4367 41.902 65.804 42.0033C66.184 42.1047 66.374 42.1553 66.374 42.1553L66.412 42.2503C66.412 42.2503 66.3867 42.358 66.336 42.5733C66.298 42.7887 66.2474 43.0737 66.184 43.4283C66.1334 43.7703 66.089 44.1503 66.051 44.5683L65.348 44.6253C65.348 44.6253 65.3544 44.5557 65.367 44.4163C65.3797 44.277 65.386 44.163 65.386 44.0743C65.386 43.6183 65.2594 43.289 65.006 43.0863C64.7654 42.871 64.3727 42.7633 63.828 42.7633C63.3974 42.7633 63.03 42.8647 62.726 43.0673C62.4347 43.27 62.289 43.517 62.289 43.8083C62.289 44.1123 62.4157 44.3973 62.669 44.6633C62.935 44.9293 63.3594 45.2143 63.942 45.5183C64.626 45.873 65.158 46.196 65.538 46.4873C65.9307 46.766 66.203 47.0383 66.355 47.3043C66.5197 47.5703 66.602 47.8617 66.602 48.1783C66.602 48.6597 66.4373 49.1093 66.108 49.5273C65.7913 49.9453 65.367 50.281 64.835 50.5343C64.3157 50.775 63.7457 50.8953 63.125 50.8953ZM68.3565 50.8953L68.4325 50.1163C68.8125 50.015 69.0848 49.8693 69.2495 49.6793C69.4142 49.4767 69.4965 49.2107 69.4965 48.8813V44.0553C69.4965 43.7007 69.4395 43.441 69.3255 43.2763C69.2115 43.1117 69.0342 43.0293 68.7935 43.0293C68.6922 43.0293 68.5845 43.042 68.4705 43.0673C68.3692 43.0927 68.3185 43.1053 68.3185 43.1053L68.3945 42.4023C68.7112 42.3517 69.0278 42.2947 69.3445 42.2313C69.6738 42.168 69.9715 42.111 70.2375 42.0603C70.5035 41.997 70.7188 41.9463 70.8835 41.9083C71.0482 41.8703 71.1305 41.8513 71.1305 41.8513L71.2255 42.0793C71.1748 42.206 71.1178 42.491 71.0545 42.9343C71.0038 43.365 70.9595 43.897 70.9215 44.5303C70.8835 45.151 70.8518 45.835 70.8265 46.5823C70.8012 47.317 70.7885 48.058 70.7885 48.8053C70.7885 49.1727 70.8392 49.445 70.9405 49.6223C71.0418 49.787 71.2128 49.8693 71.4535 49.8693C71.5675 49.8693 71.7068 49.863 71.8715 49.8503C72.0362 49.8377 72.1185 49.8313 72.1185 49.8313L72.1565 49.9073L72.0045 50.7243C72.0045 50.7243 71.9475 50.718 71.8335 50.7053C71.7322 50.7053 71.5928 50.699 71.4155 50.6863C71.2508 50.6863 71.0672 50.68 70.8645 50.6673C70.6745 50.6673 70.4908 50.6673 70.3135 50.6673C70.0475 50.6673 69.7625 50.6863 69.4585 50.7243C69.1545 50.7623 68.8948 50.8003 68.6795 50.8383C68.4642 50.8763 68.3565 50.8953 68.3565 50.8953ZM70.0285 39.6093C69.7118 39.6093 69.4775 39.508 69.3255 39.3053C69.1735 39.1027 69.0975 38.881 69.0975 38.6403C69.0975 38.3363 69.2052 38.0767 69.4205 37.8613C69.6358 37.6333 69.9018 37.5193 70.2185 37.5193C70.5225 37.5193 70.7505 37.6207 70.9025 37.8233C71.0672 38.0133 71.1495 38.235 71.1495 38.4883C71.1495 38.7923 71.0418 39.0583 70.8265 39.2863C70.6238 39.5017 70.3578 39.6093 70.0285 39.6093ZM76.9299 55.2653C76.3346 55.2653 75.8216 55.164 75.3908 54.9613C74.9603 54.7587 74.6246 54.4673 74.3839 54.0873C74.1559 53.7073 74.0419 53.2577 74.0419 52.7383C74.2193 52.523 74.4726 52.257 74.8019 51.9403C75.1439 51.6363 75.5176 51.3323 75.9229 51.0283V50.9143C75.2643 50.8003 74.7576 50.585 74.4029 50.2683C74.0609 49.9517 73.8773 49.5463 73.8519 49.0523C74.0799 48.837 74.3269 48.628 74.5929 48.4253C74.8589 48.21 75.1439 48.0137 75.4479 47.8363V47.5703L76.4359 47.8933C76.0433 48.096 75.7583 48.2797 75.5809 48.4443C75.4163 48.5963 75.3339 48.7547 75.3339 48.9193C75.3339 49.1727 75.4859 49.3627 75.7899 49.4893C76.0939 49.6033 76.4803 49.692 76.9489 49.7553C77.4303 49.806 77.9369 49.863 78.4688 49.9263C79.0136 49.9897 79.5203 50.091 79.9889 50.2303C80.4703 50.357 80.8629 50.547 81.1669 50.8003C81.4709 51.0663 81.6229 51.4337 81.6229 51.9023C81.6229 52.3203 81.4899 52.732 81.2239 53.1373C80.9706 53.5427 80.6159 53.9037 80.1599 54.2203C79.7166 54.537 79.2163 54.7903 78.6589 54.9803C78.1016 55.1703 77.5253 55.2653 76.9299 55.2653ZM77.5759 54.3343C78.0699 54.3343 78.5323 54.2457 78.9629 54.0683C79.3936 53.9037 79.7419 53.6757 80.0079 53.3843C80.2739 53.093 80.4069 52.7827 80.4069 52.4533C80.4069 52.2 80.3119 51.9973 80.1219 51.8453C79.9319 51.6933 79.5709 51.554 79.0389 51.4273C78.5196 51.3133 77.7533 51.193 76.7399 51.0663C76.3599 51.3323 76.0686 51.6237 75.8659 51.9403C75.6633 52.2697 75.5619 52.5927 75.5619 52.9093C75.5619 53.34 75.7456 53.682 76.1129 53.9353C76.4803 54.2013 76.9679 54.3343 77.5759 54.3343ZM77.6519 47.3613C78.2346 47.3613 78.6906 47.1777 79.0199 46.8103C79.3619 46.443 79.5329 45.9363 79.5329 45.2903C79.5329 44.5557 79.3303 43.9603 78.9249 43.5043C78.5196 43.0483 77.9939 42.8203 77.3479 42.8203C76.7653 42.8203 76.3029 43.0103 75.9609 43.3903C75.6316 43.7703 75.4669 44.2833 75.4669 44.9293C75.4669 45.6513 75.6696 46.2403 76.0749 46.6963C76.4803 47.1397 77.0059 47.3613 77.6519 47.3613ZM77.2149 48.1973C76.5943 48.1973 76.0433 48.077 75.5619 47.8363C75.0933 47.583 74.7196 47.241 74.4409 46.8103C74.1749 46.367 74.0419 45.8667 74.0419 45.3093C74.0419 44.676 74.2003 44.0997 74.5169 43.5803C74.8463 43.061 75.2769 42.643 75.8089 42.3263C76.3536 42.0097 76.9426 41.8513 77.5759 41.8513C77.9306 41.8513 78.2663 41.8893 78.5829 41.9653C78.9123 42.0287 79.1973 42.0603 79.4379 42.0603C79.6913 42.035 80.0459 41.9717 80.5019 41.8703C80.9706 41.769 81.4899 41.6423 82.0599 41.4903L82.1169 41.5663L81.9079 42.6303C81.6293 42.6683 81.3379 42.7 81.0339 42.7253C80.7299 42.7507 80.4766 42.776 80.2739 42.8013L80.1979 42.8963C80.7046 43.4537 80.9579 44.0997 80.9579 44.8343C80.9579 45.455 80.7869 46.0187 80.4449 46.5253C80.1156 47.032 79.6659 47.4373 79.0959 47.7413C78.5386 48.0453 77.9116 48.1973 77.2149 48.1973ZM88.6145 50.1163C88.9945 50.015 89.2668 49.8693 89.4315 49.6793C89.5961 49.4767 89.6785 49.2107 89.6785 48.8813L89.7545 45.1193C89.7545 44.486 89.6151 43.9983 89.3365 43.6563C89.0705 43.3143 88.6841 43.1433 88.1775 43.1433C87.8735 43.1433 87.5631 43.2067 87.2465 43.3333C86.9298 43.46 86.6448 43.5993 86.3915 43.7513C86.1508 43.9033 85.9671 44.03 85.8405 44.1313C85.8278 44.4607 85.8088 44.8533 85.7835 45.3093C85.7708 45.7527 85.7518 46.2087 85.7265 46.6773C85.7138 47.146 85.7011 47.5703 85.6885 47.9503C85.6758 48.3303 85.6695 48.6153 85.6695 48.8053C85.6695 49.198 85.7201 49.4767 85.8215 49.6413C85.9355 49.7933 86.1128 49.8693 86.3535 49.8693C86.4675 49.8693 86.6068 49.863 86.7715 49.8503C86.9361 49.8377 87.0185 49.8313 87.0185 49.8313L87.0565 49.9073L86.8855 50.7243C86.8855 50.7243 86.7905 50.718 86.6005 50.7053C86.4105 50.6927 86.1825 50.68 85.9165 50.6673C85.6505 50.6673 85.3971 50.6673 85.1565 50.6673C84.8905 50.6673 84.6118 50.6737 84.3205 50.6863C84.0291 50.7117 83.7821 50.7307 83.5795 50.7433C83.3768 50.7687 83.2755 50.7813 83.2755 50.7813L83.3705 50.0023C83.7378 49.939 83.9975 49.825 84.1495 49.6603C84.3015 49.4957 84.3775 49.236 84.3775 48.8813V44.2453C84.3775 43.8147 84.3078 43.517 84.1685 43.3523C84.0291 43.175 83.7885 43.0863 83.4465 43.0863H83.2375L83.1805 43.0103L83.2375 42.3833C83.6808 42.3073 84.1051 42.2313 84.5105 42.1553C84.9158 42.0667 85.2451 41.9907 85.4985 41.9273C85.7645 41.864 85.8975 41.8323 85.8975 41.8323L86.0115 41.9843C86.0115 41.9843 85.9798 42.111 85.9165 42.3643C85.8658 42.6177 85.8278 42.909 85.8025 43.2383L85.8405 43.2953C85.9545 43.2193 86.1318 43.1053 86.3725 42.9533C86.6258 42.7887 86.8918 42.624 87.1705 42.4593C87.4618 42.2947 87.7405 42.1553 88.0065 42.0413C88.2725 41.9147 88.4815 41.8513 88.6335 41.8513C89.4315 41.8513 90.0648 42.073 90.5335 42.5163C91.0021 42.9597 91.2365 43.555 91.2365 44.3023C91.2365 44.467 91.2238 44.7393 91.1985 45.1193C91.1731 45.4993 91.1415 45.9237 91.1035 46.3923C91.0655 46.861 91.0338 47.3107 91.0085 47.7413C90.9831 48.172 90.9705 48.5267 90.9705 48.8053C90.9705 49.1727 91.0211 49.445 91.1225 49.6223C91.2238 49.787 91.3948 49.8693 91.6355 49.8693C91.7495 49.8693 91.8888 49.863 92.0535 49.8503C92.2181 49.8377 92.3005 49.8313 92.3005 49.8313L92.3385 49.9073L92.1865 50.7243C92.1865 50.7243 92.1295 50.718 92.0155 50.7053C91.9141 50.7053 91.7748 50.699 91.5975 50.6863C91.4328 50.6863 91.2491 50.68 91.0465 50.6673C90.8565 50.6673 90.6728 50.6673 90.4955 50.6673C90.2928 50.6673 90.0775 50.68 89.8495 50.7053C89.6341 50.7307 89.4251 50.756 89.2225 50.7813C89.0198 50.8067 88.8551 50.832 88.7285 50.8573C88.6018 50.8827 88.5385 50.8953 88.5385 50.8953L88.6145 50.1163ZM100.738 50.8953C100.143 50.8953 99.6172 50.8383 99.1612 50.7243C98.7179 50.623 98.3695 50.5217 98.1162 50.4203C97.8755 50.3063 97.7552 50.2493 97.7552 50.2493L97.6602 50.0593C97.6602 50.0593 97.6729 49.977 97.6982 49.8123C97.7235 49.635 97.7489 49.4007 97.7742 49.1093C97.7995 48.8053 97.8249 48.4507 97.8502 48.0453C97.8755 47.64 97.8882 47.2093 97.8882 46.7533L98.7432 46.6583C98.7432 47.5703 98.8065 48.267 98.9332 48.7483C99.0599 49.217 99.3005 49.54 99.6552 49.7173C100.01 49.882 100.529 49.9643 101.213 49.9643C101.999 49.9643 102.632 49.7807 103.113 49.4133C103.607 49.0333 103.854 48.5203 103.854 47.8743C103.854 47.4563 103.715 47.0953 103.436 46.7913C103.158 46.4873 102.797 46.2087 102.353 45.9553C101.923 45.702 101.46 45.4487 100.966 45.1953C100.46 44.9293 99.9655 44.6443 99.4842 44.3403C99.0155 44.0363 98.6292 43.688 98.3252 43.2953C98.0212 42.89 97.8692 42.415 97.8692 41.8703C97.8692 41.199 98.0592 40.5973 98.4392 40.0653C98.8319 39.5333 99.3575 39.1153 100.016 38.8113C100.675 38.4947 101.416 38.3363 102.239 38.3363C102.809 38.3363 103.31 38.3743 103.74 38.4503C104.184 38.5263 104.526 38.6087 104.766 38.6973C105.02 38.7733 105.146 38.8113 105.146 38.8113L105.203 38.9253C105.203 38.9253 105.172 39.071 105.108 39.3623C105.058 39.6537 105.001 40.0463 104.937 40.5403C104.874 41.0217 104.823 41.5537 104.785 42.1363L104.044 42.2123L103.93 42.1173C103.93 42.1173 103.937 42.0287 103.949 41.8513C103.975 41.6613 103.987 41.4207 103.987 41.1293C103.987 40.458 103.823 39.9957 103.493 39.7423C103.177 39.489 102.588 39.3623 101.726 39.3623C101.03 39.3623 100.453 39.5397 99.9972 39.8943C99.5539 40.2363 99.3322 40.667 99.3322 41.1863C99.3322 41.5663 99.4525 41.9083 99.6932 42.2123C99.9339 42.5037 100.251 42.7697 100.643 43.0103C101.036 43.251 101.46 43.4917 101.916 43.7323C102.474 44.011 103.018 44.3087 103.55 44.6253C104.095 44.942 104.545 45.303 104.899 45.7083C105.254 46.1137 105.431 46.6077 105.431 47.1903C105.431 47.9123 105.229 48.552 104.823 49.1093C104.431 49.6667 103.88 50.1037 103.17 50.4203C102.474 50.737 101.663 50.8953 100.738 50.8953ZM110.566 50.8953C109.705 50.8953 109.097 50.7243 108.742 50.3823C108.388 50.0277 108.21 49.4323 108.21 48.5963V43.9223C108.21 43.5803 108.134 43.3397 107.982 43.2003C107.83 43.061 107.545 42.985 107.127 42.9723L107.051 42.8583L107.146 42.2883C107.45 42.1363 107.742 41.9653 108.02 41.7753C108.312 41.5727 108.565 41.3827 108.78 41.2053C109.008 41.0153 109.186 40.8633 109.312 40.7493C109.439 40.6227 109.502 40.5593 109.502 40.5593L109.882 40.7113C109.882 40.7113 109.863 40.8317 109.825 41.0723C109.8 41.313 109.768 41.6677 109.73 42.1363L112.523 42.0793L112.58 42.1363L112.409 43.1433L109.654 43.0863C109.616 43.6817 109.585 44.3783 109.559 45.1763C109.534 45.9743 109.521 46.861 109.521 47.8363C109.521 48.4823 109.629 48.9383 109.844 49.2043C110.072 49.4703 110.459 49.6033 111.003 49.6033C111.32 49.6033 111.611 49.5463 111.877 49.4323C112.156 49.3183 112.295 49.2613 112.295 49.2613L112.485 49.7553C112.485 49.7553 112.409 49.8123 112.257 49.9263C112.105 50.0403 111.915 50.1733 111.687 50.3253C111.472 50.4773 111.257 50.6103 111.041 50.7243C110.839 50.8383 110.68 50.8953 110.566 50.8953ZM114.634 44.0743C114.634 43.745 114.577 43.4917 114.463 43.3143C114.349 43.137 114.172 43.0483 113.931 43.0483C113.83 43.0483 113.722 43.061 113.608 43.0863C113.507 43.1117 113.456 43.1243 113.456 43.1243L113.532 42.4213C113.823 42.3707 114.127 42.3137 114.444 42.2503C114.761 42.187 115.052 42.1237 115.318 42.0603C115.597 41.997 115.818 41.9463 115.983 41.9083C116.16 41.8703 116.249 41.8513 116.249 41.8513L116.363 42.0793C116.3 42.244 116.236 42.529 116.173 42.9343C116.122 43.327 116.072 43.7893 116.021 44.3213C115.97 44.8533 115.932 45.417 115.907 46.0123C115.882 46.595 115.869 47.165 115.869 47.7223C115.869 48.9637 116.376 49.5843 117.389 49.5843C117.832 49.5843 118.244 49.464 118.624 49.2233C119.017 48.97 119.371 48.7293 119.688 48.5013V44.0933C119.688 43.7133 119.618 43.4473 119.479 43.2953C119.34 43.1433 119.093 43.0673 118.738 43.0673C118.687 43.0673 118.599 43.0737 118.472 43.0863C118.345 43.0863 118.282 43.0863 118.282 43.0863L118.358 42.4023C118.7 42.3517 119.042 42.2947 119.384 42.2313C119.726 42.168 120.036 42.111 120.315 42.0603C120.606 41.997 120.841 41.9463 121.018 41.9083C121.195 41.8703 121.284 41.8513 121.284 41.8513L121.398 42.0793C121.322 42.2693 121.252 42.6937 121.189 43.3523C121.126 44.011 121.075 44.809 121.037 45.7463C120.999 46.6837 120.98 47.659 120.98 48.6723C120.98 48.951 121.05 49.1663 121.189 49.3183C121.328 49.4703 121.518 49.5463 121.759 49.5463C121.962 49.5463 122.145 49.5083 122.31 49.4323C122.487 49.3437 122.627 49.2613 122.728 49.1853C122.842 49.1093 122.899 49.0713 122.899 49.0713L123.165 49.3753C123.165 49.3753 123.108 49.4513 122.994 49.6033C122.893 49.7553 122.753 49.9327 122.576 50.1353C122.411 50.338 122.234 50.5153 122.044 50.6673C121.854 50.8193 121.677 50.8953 121.512 50.8953C120.486 50.8953 119.922 50.3823 119.821 49.3563L119.726 49.3183C119.118 49.787 118.567 50.167 118.073 50.4583C117.592 50.7497 117.262 50.8953 117.085 50.8953C116.274 50.8953 115.647 50.7053 115.204 50.3253C114.773 49.9453 114.558 49.4007 114.558 48.6913L114.634 44.0743ZM131.753 50.8953C130.765 50.8953 130.202 50.4457 130.062 49.5463L129.929 49.4893C129.271 49.9327 128.745 50.2683 128.352 50.4963C127.96 50.7243 127.694 50.8383 127.554 50.8383C126.832 50.8383 126.193 50.6737 125.635 50.3443C125.091 50.0023 124.66 49.5337 124.343 48.9383C124.039 48.3303 123.887 47.6273 123.887 46.8293C123.887 45.9173 124.096 45.0877 124.514 44.3403C124.945 43.5803 125.521 42.9787 126.243 42.5353C126.965 42.0793 127.757 41.8513 128.618 41.8513C128.796 41.8513 128.992 41.8577 129.207 41.8703C129.423 41.883 129.663 41.902 129.929 41.9273V38.7733C129.929 38.4187 129.872 38.159 129.758 37.9943C129.644 37.8297 129.467 37.7473 129.226 37.7473C129.125 37.7473 129.017 37.76 128.903 37.7853C128.802 37.8107 128.751 37.8233 128.751 37.8233L128.827 37.1203C129.157 37.0823 129.486 37.0317 129.815 36.9683C130.145 36.905 130.449 36.8417 130.727 36.7783C131.006 36.715 131.228 36.6643 131.392 36.6263C131.557 36.5883 131.639 36.5693 131.639 36.5693L131.753 36.8163C131.703 36.905 131.652 37.19 131.601 37.6713C131.551 38.1527 131.5 38.786 131.449 39.5713C131.411 40.3567 131.373 41.2433 131.335 42.2313C131.297 43.2067 131.266 44.2453 131.24 45.3473C131.228 46.4493 131.221 47.5577 131.221 48.6723C131.221 48.951 131.291 49.1663 131.43 49.3183C131.57 49.4703 131.76 49.5463 132 49.5463C132.203 49.5463 132.387 49.5083 132.551 49.4323C132.729 49.3437 132.868 49.2613 132.969 49.1853C133.083 49.1093 133.14 49.0713 133.14 49.0713L133.406 49.3753C133.406 49.3753 133.362 49.4387 133.273 49.5653C133.185 49.692 133.064 49.8503 132.912 50.0403C132.76 50.2177 132.583 50.3887 132.38 50.5533C132.19 50.718 131.981 50.832 131.753 50.8953ZM127.858 49.6033C128.086 49.6033 128.321 49.5527 128.561 49.4513C128.802 49.35 129.024 49.236 129.226 49.1093C129.442 48.97 129.613 48.8497 129.739 48.7483C129.866 48.647 129.929 48.5963 129.929 48.5963V43.3903C129.929 43.3903 129.765 43.3207 129.435 43.1813C129.106 43.0293 128.656 42.9533 128.086 42.9533C127.238 42.9533 126.566 43.2447 126.072 43.8273C125.591 44.3973 125.35 45.1827 125.35 46.1833C125.35 46.8167 125.458 47.393 125.673 47.9123C125.901 48.4317 126.205 48.8433 126.585 49.1473C126.965 49.4513 127.39 49.6033 127.858 49.6033ZM134.244 50.8953L134.32 50.1163C134.7 50.015 134.973 49.8693 135.137 49.6793C135.302 49.4767 135.384 49.2107 135.384 48.8813V44.0553C135.384 43.7007 135.327 43.441 135.213 43.2763C135.099 43.1117 134.922 43.0293 134.681 43.0293C134.58 43.0293 134.472 43.042 134.358 43.0673C134.257 43.0927 134.206 43.1053 134.206 43.1053L134.282 42.4023C134.599 42.3517 134.916 42.2947 135.232 42.2313C135.562 42.168 135.859 42.111 136.125 42.0603C136.391 41.997 136.607 41.9463 136.771 41.9083C136.936 41.8703 137.018 41.8513 137.018 41.8513L137.113 42.0793C137.063 42.206 137.006 42.491 136.942 42.9343C136.892 43.365 136.847 43.897 136.809 44.5303C136.771 45.151 136.74 45.835 136.714 46.5823C136.689 47.317 136.676 48.058 136.676 48.8053C136.676 49.1727 136.727 49.445 136.828 49.6223C136.93 49.787 137.101 49.8693 137.341 49.8693C137.455 49.8693 137.595 49.863 137.759 49.8503C137.924 49.8377 138.006 49.8313 138.006 49.8313L138.044 49.9073L137.892 50.7243C137.892 50.7243 137.835 50.718 137.721 50.7053C137.62 50.7053 137.481 50.699 137.303 50.6863C137.139 50.6863 136.955 50.68 136.752 50.6673C136.562 50.6673 136.379 50.6673 136.201 50.6673C135.935 50.6673 135.65 50.6863 135.346 50.7243C135.042 50.7623 134.783 50.8003 134.567 50.8383C134.352 50.8763 134.244 50.8953 134.244 50.8953ZM135.916 39.6093C135.6 39.6093 135.365 39.508 135.213 39.3053C135.061 39.1027 134.985 38.881 134.985 38.6403C134.985 38.3363 135.093 38.0767 135.308 37.8613C135.524 37.6333 135.79 37.5193 136.106 37.5193C136.41 37.5193 136.638 37.6207 136.79 37.8233C136.955 38.0133 137.037 38.235 137.037 38.4883C137.037 38.7923 136.93 39.0583 136.714 39.2863C136.512 39.5017 136.246 39.6093 135.916 39.6093ZM143.141 50.8953C142.419 50.8953 141.779 50.718 141.222 50.3633C140.664 50.0087 140.227 49.5147 139.911 48.8813C139.607 48.2353 139.455 47.5007 139.455 46.6773C139.455 45.7653 139.645 44.9483 140.025 44.2263C140.417 43.4917 140.949 42.9153 141.621 42.4973C142.292 42.0667 143.039 41.8513 143.863 41.8513C144.585 41.8513 145.224 42.0287 145.782 42.3833C146.339 42.738 146.77 43.232 147.074 43.8653C147.39 44.4987 147.549 45.2333 147.549 46.0693C147.549 46.9687 147.352 47.7857 146.96 48.5203C146.579 49.255 146.054 49.8377 145.383 50.2683C144.724 50.6863 143.977 50.8953 143.141 50.8953ZM143.673 49.9643C144.382 49.9643 144.946 49.6793 145.364 49.1093C145.782 48.5267 145.991 47.7413 145.991 46.7533C145.991 45.9933 145.877 45.322 145.649 44.7393C145.421 44.1567 145.104 43.7007 144.699 43.3713C144.293 43.042 143.825 42.8773 143.293 42.8773C142.583 42.8773 142.02 43.1687 141.602 43.7513C141.184 44.334 140.975 45.1257 140.975 46.1263C140.975 46.8863 141.089 47.5577 141.317 48.1403C141.545 48.7103 141.861 49.16 142.267 49.4893C142.672 49.806 143.141 49.9643 143.673 49.9643Z" fill="white"/>
<path d="M44.7295 31.667H37.6226V8.6367H45.0444C47.2784 8.6367 49.1901 9.09775 50.7794 10.0198C52.3688 10.9345 53.587 12.2502 54.4342 13.9669C55.2813 15.6762 55.7049 17.7229 55.7049 20.1069C55.7049 22.5058 55.2775 24.5713 54.423 26.303C53.5683 28.0272 52.3238 29.3542 50.6895 30.2838C49.0552 31.2059 47.0686 31.667 44.7295 31.667ZM40.4113 29.193H44.5496C46.4538 29.193 48.0319 28.8257 49.2838 28.091C50.5357 27.3564 51.4691 26.3106 52.0839 24.9535C52.6986 23.5966 53.0061 21.9811 53.0061 20.1069C53.0061 18.2476 52.7024 16.647 52.0952 15.3051C51.488 13.9557 50.5807 12.9211 49.3737 12.2014C48.1668 11.4743 46.6637 11.1107 44.8644 11.1107H40.4113V29.193ZM67.2651 32.0269C65.6007 32.0269 64.1651 31.6596 62.9581 30.9247C61.7586 30.1826 60.8328 29.1481 60.1805 27.8211C59.5357 26.4866 59.2134 24.9348 59.2134 23.1656C59.2134 21.3964 59.5357 19.837 60.1805 18.4875C60.8328 17.1306 61.7399 16.0735 62.9019 15.3164C64.0713 14.5517 65.4359 14.1694 66.9951 14.1694C67.8948 14.1694 68.7832 14.3193 69.6602 14.6192C70.5374 14.919 71.3358 15.4063 72.0555 16.081C72.7752 16.7484 73.3487 17.633 73.7761 18.735C74.2034 19.837 74.417 21.1939 74.417 22.8057V23.9302H61.1026V21.6363H71.7182C71.7182 20.6616 71.5232 19.792 71.1333 19.0272C70.7511 18.2627 70.2038 17.6591 69.4916 17.2169C68.7868 16.7745 67.9548 16.5533 66.9951 16.5533C65.9381 16.5533 65.0234 16.8158 64.2512 17.3405C63.4866 17.8578 62.8981 18.5325 62.4858 19.3647C62.0735 20.1969 61.8673 21.0889 61.8673 22.0411V23.5705C61.8673 24.8748 62.0922 25.9806 62.542 26.8877C62.9993 27.7874 63.6328 28.4734 64.4425 28.9456C65.252 29.4104 66.193 29.6429 67.2651 29.6429C67.9622 29.6429 68.5919 29.5453 69.1542 29.3504C69.724 29.1481 70.215 28.8482 70.6273 28.4509C71.0398 28.0461 71.3583 27.5437 71.5832 26.9439L74.147 27.6637C73.8772 28.5333 73.4236 29.298 72.7865 29.9578C72.1492 30.61 71.362 31.1198 70.4249 31.4871C69.4878 31.8469 68.4345 32.0269 67.2651 32.0269ZM90.6889 18.2627L88.3049 18.9373C88.155 18.5401 87.9338 18.1539 87.6415 17.7791C87.3565 17.3967 86.9667 17.082 86.4719 16.8345C85.9771 16.5872 85.3436 16.4634 84.5716 16.4634C83.5144 16.4634 82.6336 16.707 81.9288 17.1944C81.2317 17.6741 80.883 18.2851 80.883 19.0272C80.883 19.687 81.1229 20.2081 81.6028 20.5905C82.0826 20.9727 82.8323 21.2914 83.8518 21.5463L86.4157 22.176C87.96 22.5508 89.1108 23.1243 89.868 23.8965C90.6251 24.6612 91.0038 25.647 91.0038 26.854C91.0038 27.8436 90.7188 28.7282 90.1492 29.508C89.5869 30.2876 88.7997 30.9022 87.7876 31.3521C86.7756 31.8019 85.5985 32.0269 84.2566 32.0269C82.4949 32.0269 81.0368 31.6445 79.8822 30.8798C78.7276 30.1152 77.9968 28.9981 77.6894 27.5288L80.2084 26.8989C80.4482 27.8287 80.9017 28.5258 81.5689 28.9907C82.2437 29.4554 83.1245 29.6878 84.2117 29.6878C85.4486 29.6878 86.4307 29.4255 87.1579 28.9006C87.8926 28.3684 88.2599 27.7311 88.2599 26.989C88.2599 26.3893 88.05 25.8869 87.6302 25.4822C87.2103 25.0697 86.5656 24.7624 85.696 24.56L82.8172 23.8852C81.2353 23.5105 80.0733 22.9294 79.3312 22.1423C78.5965 21.3476 78.2292 20.3542 78.2292 19.1623C78.2292 18.1876 78.5028 17.3255 79.05 16.5759C79.6048 15.8262 80.3583 15.2377 81.3104 14.8103C82.27 14.383 83.357 14.1694 84.5716 14.1694C86.2808 14.1694 87.6226 14.5442 88.5973 15.2939C89.5793 16.0436 90.2766 17.0332 90.6889 18.2627ZM94.9986 31.667V14.3943H97.6526V31.667H94.9986ZM96.3481 11.5155C95.8308 11.5155 95.3848 11.3393 95.0098 10.9869C94.6425 10.6346 94.4588 10.211 94.4588 9.71623C94.4588 9.22144 94.6425 8.79786 95.0098 8.44552C95.3848 8.09317 95.8308 7.91699 96.3481 7.91699C96.8653 7.91699 97.3077 8.09317 97.6751 8.44552C98.0498 8.79786 98.2373 9.22144 98.2373 9.71623C98.2373 10.211 98.0498 10.6346 97.6751 10.9869C97.3077 11.3393 96.8653 11.5155 96.3481 11.5155ZM109.485 38.5041C108.203 38.5041 107.101 38.3392 106.179 38.0093C105.257 37.687 104.489 37.2596 103.874 36.7273C103.267 36.2026 102.783 35.6404 102.423 35.0406L104.537 33.5562C104.777 33.871 105.081 34.2309 105.448 34.6357C105.816 35.048 106.318 35.4041 106.955 35.704C107.6 36.0113 108.443 36.1651 109.485 36.1651C110.88 36.1651 112.031 35.8277 112.938 35.153C113.845 34.4784 114.298 33.4213 114.298 31.9819V28.4734H114.073C113.879 28.7882 113.601 29.178 113.241 29.6429C112.889 30.1001 112.379 30.5088 111.712 30.8685C111.052 31.221 110.16 31.397 109.035 31.397C107.641 31.397 106.389 31.0672 105.28 30.4075C104.178 29.7478 103.304 28.7882 102.66 27.5288C102.022 26.2693 101.704 24.7399 101.704 22.9406C101.704 21.1714 102.015 19.6308 102.637 18.3189C103.259 16.9995 104.125 15.9798 105.235 15.2601C106.344 14.533 107.626 14.1694 109.081 14.1694C110.205 14.1694 111.097 14.3568 111.757 14.7316C112.424 15.099 112.934 15.5188 113.286 15.991C113.646 16.4559 113.924 16.8383 114.118 17.1382H114.388V14.3943H116.952V32.1618C116.952 33.6462 116.615 34.8531 115.94 35.7827C115.273 36.7199 114.373 37.4058 113.241 37.8406C112.117 38.2829 110.865 38.5041 109.485 38.5041ZM109.395 29.0132C110.46 29.0132 111.36 28.7695 112.094 28.2821C112.829 27.795 113.387 27.0939 113.77 26.1793C114.152 25.2646 114.343 24.1702 114.343 22.8956C114.343 21.6511 114.156 20.5529 113.781 19.6009C113.406 18.6487 112.851 17.9028 112.117 17.363C111.382 16.8232 110.475 16.5533 109.395 16.5533C108.271 16.5533 107.334 16.8383 106.584 17.408C105.842 17.9778 105.283 18.7424 104.909 19.7021C104.541 20.6616 104.358 21.7262 104.358 22.8956C104.358 24.0952 104.545 25.156 104.92 26.0781C105.302 26.9927 105.864 27.7125 106.607 28.2372C107.356 28.7544 108.286 29.0132 109.395 29.0132ZM124.464 21.2764V31.667H121.81V14.3943H124.374V17.0932H124.599C125.004 16.216 125.619 15.5113 126.443 14.979C127.268 14.4392 128.332 14.1694 129.637 14.1694C130.806 14.1694 131.83 14.4093 132.707 14.8891C133.584 15.3614 134.266 16.081 134.753 17.0481C135.241 18.0077 135.484 19.2223 135.484 20.6916V31.667H132.831V20.8715C132.831 19.5146 132.478 18.4576 131.773 17.7004C131.069 16.9357 130.102 16.5533 128.872 16.5533C128.025 16.5533 127.268 16.737 126.601 17.1044C125.941 17.4718 125.42 18.0077 125.038 18.7125C124.655 19.4172 124.464 20.2717 124.464 21.2764Z" fill="white"/>
<path d="M160.655 15.8341H157.866C157.701 15.032 157.412 14.3273 157 13.72C156.595 13.1128 156.1 12.603 155.515 12.1907C154.938 11.7708 154.297 11.456 153.592 11.2461C152.888 11.0362 152.153 10.9312 151.388 10.9312C149.994 10.9312 148.731 11.2835 147.599 11.9882C146.474 12.693 145.578 13.7313 144.911 15.1032C144.251 16.4751 143.921 18.1581 143.921 20.1524C143.921 22.1464 144.251 23.8295 144.911 25.2014C145.578 26.5734 146.474 27.6116 147.599 28.3163C148.731 29.0211 149.994 29.3734 151.388 29.3734C152.153 29.3734 152.888 29.2684 153.592 29.0586C154.297 28.8487 154.938 28.5375 155.515 28.1252C156.1 27.7053 156.595 27.1919 157 26.5846C157.412 25.9698 157.701 25.2651 157.866 24.4704H160.655C160.444 25.6475 160.062 26.7009 159.507 27.6304C158.953 28.56 158.263 29.3509 157.438 30.0032C156.614 30.648 155.688 31.1389 154.661 31.4764C153.641 31.8136 152.55 31.9824 151.388 31.9824C149.424 31.9824 147.677 31.5025 146.148 30.543C144.619 29.5833 143.415 28.219 142.538 26.4496C141.661 24.6804 141.223 22.5813 141.223 20.1524C141.223 17.7234 141.661 15.6242 142.538 13.855C143.415 12.0857 144.619 10.7213 146.148 9.76168C147.677 8.80209 149.424 8.32229 151.388 8.32229C152.55 8.32229 153.641 8.49098 154.661 8.82832C155.688 9.16568 156.614 9.66047 157.438 10.3127C158.263 10.9574 158.953 11.7446 159.507 12.6742C160.062 13.5963 160.444 14.6496 160.655 15.8341ZM164.801 31.6675V14.3947H167.365V17.0036H167.545C167.86 16.1491 168.43 15.4555 169.254 14.9233C170.079 14.391 171.008 14.1248 172.044 14.1248C172.238 14.1248 172.482 14.1286 172.773 14.1361C173.066 14.1436 173.288 14.1548 173.437 14.1698V16.8687C173.348 16.8462 173.141 16.8125 172.819 16.7675C172.504 16.7149 172.17 16.6888 171.819 16.6888C170.978 16.6888 170.229 16.8649 169.569 17.2173C168.916 17.5622 168.4 18.0419 168.017 18.6567C167.642 19.2639 167.455 19.9574 167.455 20.7371V31.6675H164.801ZM181.667 32.0723C180.571 32.0723 179.579 31.8662 178.686 31.4539C177.794 31.034 177.086 30.4306 176.561 29.6433C176.037 28.8487 175.774 27.889 175.774 26.7645C175.774 25.7749 175.969 24.9728 176.358 24.358C176.748 23.7358 177.27 23.2486 177.921 22.8961C178.573 22.5438 179.294 22.2815 180.081 22.109C180.875 21.929 181.673 21.7867 182.476 21.6817C183.526 21.5468 184.376 21.4455 185.028 21.378C185.689 21.3031 186.168 21.1793 186.468 21.0069C186.775 20.8345 186.928 20.5346 186.928 20.1074V20.0173C186.928 18.9079 186.626 18.0457 186.018 17.4309C185.418 16.8163 184.508 16.5088 183.285 16.5088C182.019 16.5088 181.026 16.7862 180.305 17.341C179.587 17.8958 179.08 18.488 178.787 19.1178L176.268 18.2182C176.719 17.1686 177.318 16.3514 178.068 15.7667C178.825 15.1744 179.65 14.7621 180.541 14.5297C181.441 14.2898 182.326 14.1698 183.195 14.1698C183.751 14.1698 184.387 14.2373 185.108 14.3722C185.834 14.4997 186.536 14.7658 187.21 15.1707C187.893 15.5755 188.458 16.1864 188.908 17.0036C189.357 17.8207 189.584 18.9153 189.584 20.2873V31.6675H186.928V29.3284H186.794C186.615 29.7033 186.314 30.1044 185.895 30.5317C185.475 30.9591 184.916 31.3226 184.219 31.6225C183.521 31.9224 182.671 32.0723 181.667 32.0723ZM182.071 29.6883C183.121 29.6883 184.006 29.4821 184.724 29.0698C185.453 28.6575 185.999 28.1252 186.366 27.4731C186.742 26.8207 186.928 26.1348 186.928 25.415V22.986C186.816 23.1211 186.569 23.2448 186.187 23.3572C185.812 23.4622 185.377 23.5559 184.883 23.6384C184.395 23.7133 183.919 23.7807 183.455 23.8407C182.997 23.8933 182.627 23.9383 182.342 23.9756C181.651 24.0657 181.007 24.2119 180.407 24.4142C179.815 24.6091 179.335 24.9054 178.967 25.3026C178.608 25.6924 178.428 26.2248 178.428 26.8994C178.428 27.8215 178.768 28.5188 179.45 28.9912C180.141 29.4559 181.015 29.6883 182.071 29.6883ZM202.119 14.3947V16.6438H192.807V14.3947H202.119ZM195.596 31.6675V12.0107C195.596 11.0212 195.828 10.1965 196.294 9.53678C196.758 8.87706 197.363 8.38226 198.104 8.05241C198.846 7.72254 199.63 7.55762 200.455 7.55762C201.107 7.55762 201.639 7.61009 202.051 7.71505C202.464 7.82001 202.771 7.91746 202.974 8.00743L202.209 10.3015C202.073 10.2565 201.886 10.2002 201.646 10.1328C201.414 10.0653 201.107 10.0316 200.724 10.0316C199.847 10.0316 199.214 10.2527 198.824 10.695C198.441 11.1374 198.251 11.7858 198.251 12.6405V31.6675H195.596ZM213.35 14.3947V16.6438H204.399V14.3947H213.35ZM207.007 10.2565H209.662V26.7195C209.662 27.4693 209.77 28.0315 209.988 28.4063C210.213 28.7736 210.498 29.0211 210.841 29.1485C211.195 29.2684 211.565 29.3284 211.955 29.3284C212.248 29.3284 212.488 29.3135 212.675 29.2834C212.862 29.2459 213.012 29.216 213.125 29.1935L213.665 31.5775C213.484 31.645 213.234 31.7124 212.911 31.7799C212.59 31.8549 212.181 31.8923 211.685 31.8923C210.937 31.8923 210.202 31.7311 209.481 31.4087C208.769 31.0864 208.177 30.5954 207.705 29.9356C207.239 29.276 207.007 28.4438 207.007 27.4392V10.2565Z" fill="white"/>
<path d="M10.0381 32.0465C10.0381 32.0465 9.87976 32.0254 9.56309 31.9832C9.24643 31.9409 8.84532 31.8988 8.35976 31.8565C7.8742 31.8142 7.36753 31.7721 6.83976 31.7298C6.33309 31.6876 5.8792 31.6665 5.47809 31.6665C4.95032 31.6665 4.40143 31.6982 3.83143 31.7615C3.28253 31.8248 2.80753 31.8882 2.40643 31.9515C2.02643 32.0148 1.83643 32.0465 1.83643 32.0465L2.02643 30.5898C3.01865 30.3998 3.67309 30.1254 3.98976 29.7665C4.32753 29.3865 4.49643 28.7532 4.49643 27.8665L4.52809 14.5665C4.52809 13.8909 4.4542 13.4371 4.30643 13.2048C4.15865 12.9726 3.84199 12.8565 3.35643 12.8565C3.16643 12.8565 2.9342 12.8671 2.65976 12.8882C2.40643 12.9093 2.27976 12.9198 2.27976 12.9198L2.21643 12.7932L2.43809 11.3998C2.43809 11.3998 2.5542 11.4104 2.78643 11.4315C3.01865 11.4315 3.30365 11.4421 3.64143 11.4632C4.00032 11.4632 4.36976 11.4737 4.74976 11.4948C5.12976 11.4948 5.46753 11.4948 5.76309 11.4948C6.12199 11.4948 6.56532 11.4948 7.09309 11.4948C7.64199 11.4737 8.18032 11.4526 8.70809 11.4315C9.23587 11.4104 9.6792 11.3998 10.0381 11.3998C10.397 11.3787 10.5764 11.3682 10.5764 11.3682C12.6453 11.3682 14.4609 11.7693 16.0231 12.5715C17.5854 13.3526 18.7992 14.4609 19.6648 15.8965C20.5514 17.3109 20.9948 18.9576 20.9948 20.8365C20.9948 22.4198 20.7098 23.8871 20.1398 25.2382C19.5908 26.5892 18.8098 27.7821 17.7964 28.8165C16.8042 29.8298 15.6431 30.6215 14.3131 31.1915C13.0042 31.7615 11.5792 32.0465 10.0381 32.0465ZM8.39143 12.9198C7.94809 12.9198 7.65253 12.9621 7.50476 13.0465C7.35699 13.1309 7.27253 13.3209 7.25143 13.6165C7.10365 17.2688 6.98753 20.3192 6.90309 22.7682C6.81865 25.2171 6.77643 26.8004 6.77643 27.5182C6.77643 28.2782 6.88199 28.8692 7.09309 29.2915C7.32532 29.7138 7.72643 30.0092 8.29643 30.1782C8.88753 30.3471 9.71087 30.4315 10.7664 30.4315C13.0464 30.4315 14.8409 29.6504 16.1498 28.0882C17.4587 26.5048 18.1131 24.3409 18.1131 21.5965C18.1131 19.7388 17.7331 18.1659 16.9731 16.8782C16.2342 15.5904 15.1364 14.6087 13.6798 13.9332C12.2442 13.2576 10.4814 12.9198 8.39143 12.9198Z" fill="white"/>
<path d="M17.0684 39.9629C15.1473 39.9629 13.4795 39.5619 12.0651 38.7596C10.6507 37.9573 9.55287 36.8279 8.77176 35.3713C7.99066 33.8935 7.6001 32.1623 7.6001 30.1779C7.6001 28.5735 7.87454 27.0956 8.42343 25.7446C8.97233 24.3723 9.74287 23.1902 10.7351 22.1979C11.7273 21.1846 12.8884 20.4035 14.2184 19.8546C15.5695 19.3056 17.0474 19.0312 18.6518 19.0312C19.3062 19.0312 19.9607 19.0735 20.6151 19.1579C21.2695 19.2212 21.8607 19.3056 22.3884 19.4112C22.9162 19.5169 23.3384 19.6119 23.6551 19.6962C23.9928 19.7596 24.1618 19.7912 24.1618 19.7912L24.2884 19.9812C24.2884 19.9812 24.2357 20.224 24.1301 20.7096C24.0245 21.174 23.9084 21.8073 23.7818 22.6096C23.6551 23.4119 23.5601 24.2985 23.4968 25.2696L21.9768 25.3963C21.9768 25.3963 21.9874 25.2273 22.0084 24.8896C22.0507 24.5306 22.0718 24.1823 22.0718 23.8446C22.0718 22.8523 21.6812 22.1135 20.9001 21.6279C20.1401 21.1423 18.979 20.8996 17.4168 20.8996C16.0024 20.8996 14.7673 21.2373 13.7118 21.9129C12.6773 22.5885 11.8751 23.5385 11.3051 24.7629C10.7351 25.9873 10.4501 27.444 10.4501 29.1329C10.4501 30.9906 10.7457 32.6162 11.3368 34.0096C11.949 35.3819 12.7934 36.4585 13.8701 37.2396C14.9679 37.9996 16.2451 38.3796 17.7018 38.3796C19.1374 38.3796 20.2878 37.9785 21.1534 37.1762C22.0401 36.3529 22.684 35.0863 23.0851 33.3762L24.6051 33.2496C24.6051 33.2496 24.5734 33.4079 24.5101 33.7246C24.4468 34.0412 24.3624 34.4635 24.2568 34.9913C24.1724 35.4979 24.0774 36.0573 23.9718 36.6696C23.8874 37.2606 23.8134 37.8412 23.7501 38.4113L23.5601 38.6963C23.5601 38.6963 23.2751 38.8019 22.7051 39.0129C22.1562 39.224 21.3962 39.4352 20.4251 39.6463C19.454 39.8573 18.3351 39.9629 17.0684 39.9629Z" fill="white"/>
</svg>
