<svg width="24" height="14" viewBox="0 0 24 14" fill="none" xmlns="http://www.w3.org/2000/svg">
<path fill-rule="evenodd" clip-rule="evenodd" d="M13.1786 13.1786C12.866 13.491 12.4422 13.6666 12.0002 13.6666C11.5583 13.6666 11.1345 13.491 10.8219 13.1786L1.39358 3.75025C1.2344 3.5965 1.10743 3.41259 1.02008 3.20925C0.932729 3.00591 0.886752 2.78721 0.884829 2.56591C0.882906 2.34462 0.925075 2.12515 1.00888 1.92032C1.09268 1.7155 1.21643 1.52941 1.37292 1.37292C1.52941 1.21643 1.7155 1.09268 1.92032 1.00888C2.12515 0.925075 2.34462 0.882906 2.56591 0.884829C2.78721 0.886752 3.00591 0.932729 3.20925 1.02008C3.41259 1.10743 3.5965 1.2344 3.75025 1.39358L12.0002 9.64358L20.2502 1.39358C20.5646 1.08998 20.9856 0.921992 21.4226 0.925789C21.8596 0.929586 22.2776 1.10487 22.5866 1.41388C22.8956 1.72289 23.0709 2.14092 23.0747 2.57791C23.0785 3.0149 22.9105 3.43591 22.6069 3.75025L13.1786 13.1786Z" fill="white"/>
</svg>
