<svg width="46" height="45" viewBox="0 0 46 45" fill="none" xmlns="http://www.w3.org/2000/svg">
<path d="M23.3311 0C10.6268 0 0.78125 9.28535 0.78125 21.827C0.78125 28.3868 3.47671 34.0557 7.86421 37.9716C8.62177 38.653 8.46573 39.0477 8.59456 43.2548C8.6047 43.5495 8.68679 43.8373 8.83366 44.0929C8.98054 44.3486 9.18774 44.5645 9.43719 44.7217C9.68664 44.8789 9.97076 44.9727 10.2648 44.9949C10.5588 45.0171 10.8538 44.967 11.124 44.849C15.9243 42.7349 15.986 42.568 16.7998 42.7894C30.7072 46.6173 45.7812 37.7166 45.7812 21.827C45.7812 9.28535 36.0364 0 23.3311 0ZM36.8711 16.7969L30.2481 27.2826C29.998 27.6769 29.6691 28.0153 29.2822 28.2766C28.8952 28.5379 28.4584 28.7164 27.9993 28.801C27.5401 28.8855 27.0684 28.8744 26.6137 28.7681C26.159 28.6619 25.7312 28.4629 25.3571 28.1836L20.0877 24.2395C19.8521 24.0629 19.5656 23.9674 19.2712 23.9674C18.9767 23.9674 18.6902 24.0629 18.4546 24.2395L11.3445 29.6326C10.3955 30.3521 9.15252 29.2152 9.79214 28.2108L16.4151 17.7251C16.6651 17.3307 16.9939 16.9922 17.3809 16.7309C17.7679 16.4695 18.2047 16.291 18.6639 16.2064C19.1231 16.1218 19.5948 16.133 20.0495 16.2393C20.5042 16.3456 20.932 16.5447 21.3061 16.8241L26.5737 20.7673C26.8093 20.944 27.0958 21.0395 27.3902 21.0395C27.6847 21.0395 27.9712 20.944 28.2068 20.7673L35.3206 15.3797C36.2677 14.6557 37.5107 15.7916 36.8711 16.7969Z" fill="#121111"/>
</svg>
